<?xml version="1.0" encoding="UTF-8" ?>
<!DOCTYPE svg PUBLIC "-//W3C//DTD SVG 1.1//EN" "http://www.w3.org/Graphics/SVG/1.1/DTD/svg11.dtd">
<svg width="1080pt" height="1080pt" viewBox="0 0 1080 1080" version="1.1" xmlns="http://www.w3.org/2000/svg">
<g id="#2828286a">
<path fill="#282828" opacity="0.42" d=" M 296.00 45.98 C 299.57 43.57 307.72 45.50 312.99 45.05 L 313.01 46.02 C 307.33 46.03 301.67 46.05 296.00 45.98 Z" />
<path fill="#282828" opacity="0.42" d=" M 1034.02 296.00 C 1036.41 299.57 1034.48 307.72 1034.95 312.99 L 1033.98 313.01 C 1033.95 307.33 1033.93 301.67 1034.02 296.00 Z" />
</g>
<g id="#494949c0">
<path fill="#494949" opacity="0.75" d=" M 312.99 45.05 C 321.73 45.13 330.54 44.51 339.27 45.30 C 330.54 46.30 321.76 46.04 313.01 46.02 L 312.99 45.05 Z" />
<path fill="#494949" opacity="0.75" d=" M 1033.98 313.01 L 1034.95 312.99 C 1034.85 321.73 1035.49 330.54 1034.69 339.27 C 1033.69 330.54 1033.95 321.76 1033.98 313.01 Z" />
</g>
<g id="#606060ff">
<path fill="#606060" opacity="1.00" d=" M 339.27 45.30 C 473.74 44.77 608.27 44.85 742.74 45.26 C 751.44 46.39 760.24 46.00 769.00 46.02 C 774.31 46.01 779.67 46.06 785.00 45.98 C 788.90 45.92 792.81 46.03 796.74 46.30 C 800.46 46.70 804.21 46.93 807.99 47.00 C 810.96 47.06 814.12 46.83 817.12 47.44 C 819.29 48.10 821.50 48.29 823.75 48.03 C 825.87 47.84 828.01 47.98 830.10 48.49 C 831.52 48.63 834.37 48.91 835.80 49.05 C 837.52 49.04 839.35 48.79 841.01 49.45 C 842.18 50.07 843.51 50.20 844.83 50.02 C 937.18 56.26 1019.16 135.24 1028.99 227.17 C 1028.76 228.47 1028.91 229.81 1029.55 230.99 C 1030.00 232.34 1030.15 233.74 1030.02 235.19 C 1029.78 236.79 1029.89 238.44 1030.52 239.96 C 1030.91 241.34 1031.05 242.75 1030.95 244.20 C 1031.09 245.63 1031.37 248.48 1031.51 249.91 C 1032.00 251.96 1032.08 254.09 1032.00 256.19 C 1031.67 258.48 1031.82 260.73 1032.45 262.94 C 1032.81 265.60 1032.99 268.29 1033.00 271.01 C 1032.95 275.11 1033.15 279.22 1033.62 283.31 C 1033.98 287.52 1034.03 291.77 1034.02 296.00 C 1033.93 301.67 1033.95 307.33 1033.98 313.01 C 1033.95 321.76 1033.69 330.54 1034.69 339.27 C 1035.08 348.70 1035.34 358.20 1034.75 367.64 C 1032.99 426.03 1034.50 484.56 1034.00 543.00 C 1034.47 599.45 1033.09 656.05 1034.64 712.41 C 1035.12 722.47 1035.41 732.66 1034.73 742.74 C 1033.60 751.44 1033.99 760.24 1033.98 769.00 C 1033.95 774.31 1033.94 779.67 1034.02 785.00 C 1034.05 788.90 1033.94 792.81 1033.70 796.74 C 1033.27 800.46 1033.04 804.21 1033.00 807.99 C 1032.88 811.31 1033.26 814.80 1032.55 818.12 C 1031.87 820.29 1031.68 822.50 1031.97 824.75 C 1032.13 826.54 1031.92 828.34 1031.52 830.10 C 1031.37 831.52 1031.09 834.37 1030.95 835.80 C 1030.94 837.52 1031.20 839.35 1030.55 841.01 C 1029.92 842.18 1029.79 843.51 1029.98 844.83 C 1023.58 940.05 940.04 1023.52 844.82 1030.00 C 843.19 1029.80 841.55 1029.89 840.04 1030.52 C 838.65 1030.91 837.23 1031.05 835.80 1030.95 C 834.37 1031.09 831.52 1031.37 830.09 1031.51 C 828.03 1032.00 825.90 1032.08 823.81 1032.00 C 821.46 1031.67 819.22 1031.82 817.06 1032.45 C 814.37 1032.81 811.68 1032.99 808.99 1033.00 C 804.85 1032.95 800.76 1033.15 796.69 1033.62 C 792.78 1033.93 788.88 1034.06 785.00 1034.02 C 779.31 1033.94 773.65 1033.95 767.99 1033.99 C 759.57 1034.31 751.01 1033.10 742.68 1034.60 C 607.24 1035.34 471.71 1035.14 336.26 1034.70 C 327.86 1033.72 319.41 1033.95 310.98 1034.00 C 305.64 1033.95 300.33 1033.93 295.00 1034.02 C 290.74 1033.96 286.49 1034.10 282.26 1033.74 C 278.52 1033.28 274.77 1033.03 271.02 1032.99 C 268.28 1033.06 265.57 1032.91 262.89 1032.55 C 260.68 1031.89 258.47 1031.70 256.25 1031.97 C 254.41 1031.85 250.73 1031.62 248.90 1031.50 C 247.47 1031.36 244.62 1031.08 243.20 1030.95 C 241.75 1031.08 240.35 1030.95 238.99 1030.55 C 237.81 1029.91 236.47 1029.77 235.17 1030.00 C 233.73 1030.14 232.34 1030.00 230.99 1029.55 C 229.81 1028.91 228.47 1028.76 227.17 1028.99 C 174.80 1023.99 127.05 994.07 94.25 953.75 C 68.56 923.11 52.98 884.68 50.00 844.82 C 50.18 843.19 50.09 841.55 49.48 840.04 C 49.08 838.65 48.93 837.23 49.05 835.80 C 48.91 834.37 48.63 831.52 48.49 830.09 C 47.99 828.03 47.91 825.90 48.00 823.81 C 48.27 821.46 48.12 819.22 47.56 817.06 C 46.80 814.03 47.15 811.01 46.98 807.98 C 46.92 804.21 46.69 800.46 46.30 796.74 C 46.04 792.81 45.93 788.90 45.98 785.00 C 46.02 779.63 46.04 774.33 46.00 768.99 C 45.67 760.56 46.89 752.01 45.40 743.68 C 44.64 733.26 44.86 722.77 45.29 712.35 C 46.95 640.63 45.52 568.77 46.00 497.00 C 45.50 453.89 46.95 410.61 45.36 367.59 C 44.65 357.18 44.86 346.68 45.30 336.26 C 46.26 327.86 46.05 319.41 46.00 310.98 C 46.01 305.64 46.07 300.33 45.98 295.00 C 46.00 290.74 45.88 286.49 46.26 282.26 C 46.70 278.52 46.94 274.77 47.01 271.02 C 46.91 268.28 47.06 265.57 47.45 262.89 C 48.09 260.68 48.29 258.46 48.03 256.25 C 47.84 254.12 47.98 251.97 48.49 249.90 C 48.63 248.48 48.91 245.63 49.05 244.20 C 49.04 242.47 48.78 240.64 49.45 238.99 C 50.07 237.81 50.21 236.47 50.00 235.17 C 49.84 233.73 49.99 232.34 50.45 230.99 C 51.07 229.81 51.22 228.47 51.01 227.17 C 55.99 175.04 85.66 127.46 125.71 94.70 C 154.45 70.79 189.86 54.67 227.17 51.01 C 228.47 51.22 229.81 51.07 230.99 50.45 C 232.34 49.99 233.73 49.84 235.17 50.00 C 236.47 50.21 237.81 50.07 238.99 49.45 C 240.64 48.78 242.47 49.04 244.20 49.05 C 245.63 48.91 248.48 48.63 249.90 48.49 C 251.96 47.99 254.09 47.91 256.19 48.00 C 258.48 48.27 260.73 48.12 262.94 47.55 C 265.60 47.16 268.29 46.97 271.01 47.00 C 275.11 47.00 279.22 46.84 283.31 46.38 C 287.52 45.98 291.77 45.96 296.00 45.98 C 301.67 46.05 307.33 46.03 313.01 46.02 C 321.76 46.04 330.54 46.30 339.27 45.30 M 599.69 194.70 C 589.60 200.82 577.56 203.35 569.15 212.14 C 558.00 222.94 546.09 233.64 536.25 245.37 C 518.77 262.78 500.49 279.92 484.20 298.15 C 477.92 301.22 474.37 307.76 468.78 311.78 C 451.06 330.95 430.39 348.51 414.07 368.19 C 396.81 384.28 378.95 401.79 363.25 419.22 C 356.95 422.04 353.07 428.50 347.90 432.91 C 329.83 452.37 309.01 470.28 291.97 490.12 C 276.18 504.30 261.67 520.40 246.28 535.19 C 240.94 535.19 239.57 542.87 235.10 545.09 C 222.59 558.84 205.79 570.62 199.94 588.98 C 196.12 595.74 191.34 602.82 192.01 610.98 C 192.60 630.29 190.69 649.78 193.06 668.99 C 194.47 676.39 201.02 681.43 202.26 688.85 C 205.72 696.87 212.55 702.35 218.35 708.58 C 260.31 750.43 302.78 792.01 344.76 834.24 C 361.46 850.18 376.02 869.90 397.76 879.24 C 417.25 892.35 442.59 887.16 464.59 887.43 C 473.04 886.81 481.80 885.93 488.89 880.84 C 516.79 868.16 534.93 842.12 556.98 821.98 C 651.03 728.03 745.01 634.09 838.96 539.97 C 858.29 521.67 878.16 502.10 886.00 476.02 C 888.86 463.89 887.80 451.33 888.03 439.00 C 887.97 424.93 888.05 409.57 879.25 397.77 C 869.35 373.99 846.63 358.81 830.02 339.96 C 805.57 316.43 781.79 291.27 757.52 268.14 C 736.96 248.21 717.71 226.74 696.03 207.96 C 681.84 200.69 667.31 190.10 650.42 192.62 C 633.54 194.90 616.23 189.73 599.69 194.70 Z" />
</g>
<g id="#464646ba">
<path fill="#464646" opacity="0.73" d=" M 742.74 45.26 C 751.47 44.97 760.24 44.80 768.99 45.06 L 769.00 46.02 C 760.24 46.00 751.44 46.39 742.74 45.26 Z" />
<path fill="#464646" opacity="0.73" d=" M 1033.98 769.00 C 1033.99 760.24 1033.60 751.44 1034.73 742.74 C 1035.02 751.47 1035.19 760.24 1034.94 768.99 L 1033.98 769.00 Z" />
</g>
<g id="#24242461">
<path fill="#242424" opacity="0.38" d=" M 768.99 45.06 C 773.68 45.81 781.91 43.31 785.00 45.98 C 779.67 46.06 774.31 46.01 769.00 46.02 L 768.99 45.06 Z" />
<path fill="#242424" opacity="0.38" d=" M 45.05 311.02 C 45.81 306.31 43.31 298.08 45.98 295.00 C 46.07 300.33 46.01 305.64 46.00 310.98 L 45.05 311.02 Z" />
<path fill="#242424" opacity="0.38" d=" M 45.03 769.01 L 46.00 768.99 C 46.04 774.33 46.02 779.63 45.98 785.00 C 43.32 781.94 45.81 773.69 45.03 769.01 Z" />
<path fill="#242424" opacity="0.38" d=" M 1033.98 769.00 L 1034.94 768.99 C 1034.17 773.68 1036.67 781.91 1034.02 785.00 C 1033.94 779.67 1033.95 774.31 1033.98 769.00 Z" />
<path fill="#242424" opacity="0.38" d=" M 295.00 1034.02 C 300.33 1033.93 305.64 1033.95 310.98 1034.00 L 311.02 1034.95 C 306.31 1034.16 298.08 1036.66 295.00 1034.02 Z" />
</g>
<g id="#32323284">
<path fill="#323232" opacity="0.52" d=" M 271.01 47.00 C 272.73 44.35 279.66 46.51 283.31 46.38 C 279.22 46.84 275.11 47.00 271.01 47.00 Z" />
<path fill="#323232" opacity="0.52" d=" M 1033.00 271.01 C 1035.61 272.73 1033.48 279.66 1033.62 283.31 C 1033.15 279.22 1032.95 275.11 1033.00 271.01 Z" />
<path fill="#323232" opacity="0.52" d=" M 796.69 1033.62 C 800.76 1033.15 804.85 1032.95 808.99 1033.00 C 807.23 1035.61 800.32 1033.48 796.69 1033.62 Z" />
</g>
<g id="#3434348a">
<path fill="#343434" opacity="0.54" d=" M 796.74 46.30 C 801.40 45.47 805.15 45.70 807.99 47.00 C 804.21 46.93 800.46 46.70 796.74 46.30 Z" />
<path fill="#343434" opacity="0.54" d=" M 1030.02 235.19 C 1031.98 235.34 1031.55 238.82 1030.52 239.96 C 1029.89 238.44 1029.78 236.79 1030.02 235.19 Z" />
<path fill="#343434" opacity="0.54" d=" M 46.30 796.74 C 46.69 800.46 46.92 804.21 46.98 807.98 C 45.70 805.15 45.47 801.40 46.30 796.74 Z" />
<path fill="#343434" opacity="0.54" d=" M 1033.00 807.99 C 1033.04 804.21 1033.27 800.46 1033.70 796.74 C 1034.51 801.40 1034.27 805.15 1033.00 807.99 Z" />
<path fill="#343434" opacity="0.54" d=" M 49.48 840.04 C 50.09 841.55 50.18 843.19 50.00 844.82 C 48.01 844.66 48.43 841.16 49.48 840.04 Z" />
<path fill="#343434" opacity="0.54" d=" M 840.04 1030.52 C 841.55 1029.89 843.19 1029.80 844.82 1030.00 C 844.66 1031.98 841.16 1031.56 840.04 1030.52 Z" />
</g>
<g id="#33333387">
<path fill="#333333" opacity="0.53" d=" M 256.19 48.00 C 257.04 45.80 261.20 46.43 262.94 47.55 C 260.73 48.12 258.48 48.27 256.19 48.00 Z" />
<path fill="#333333" opacity="0.53" d=" M 1032.00 256.19 C 1034.19 257.04 1033.56 261.20 1032.45 262.94 C 1031.82 260.73 1031.67 258.48 1032.00 256.19 Z" />
<path fill="#333333" opacity="0.53" d=" M 47.56 817.06 C 48.12 819.22 48.27 821.46 48.00 823.81 C 45.80 822.95 46.43 818.79 47.56 817.06 Z" />
<path fill="#333333" opacity="0.53" d=" M 817.06 1032.45 C 819.22 1031.82 821.46 1031.67 823.81 1032.00 C 822.95 1034.19 818.79 1033.56 817.06 1032.45 Z" />
</g>
<g id="#32323286">
<path fill="#323232" opacity="0.53" d=" M 817.12 47.44 C 818.85 46.47 823.07 45.73 823.75 48.03 C 821.50 48.29 819.29 48.10 817.12 47.44 Z" />
<path fill="#323232" opacity="0.53" d=" M 47.45 262.89 C 46.46 261.14 45.73 256.92 48.03 256.25 C 48.29 258.46 48.09 260.68 47.45 262.89 Z" />
<path fill="#323232" opacity="0.53" d=" M 256.25 1031.97 C 258.47 1031.70 260.68 1031.89 262.89 1032.55 C 261.15 1033.53 256.91 1034.27 256.25 1031.97 Z" />
</g>
<g id="#32323285">
<path fill="#323232" opacity="0.52" d=" M 244.20 49.05 C 244.49 46.79 248.54 47.25 249.90 48.49 C 248.48 48.63 245.63 48.91 244.20 49.05 Z" />
<path fill="#323232" opacity="0.52" d=" M 830.10 48.49 C 831.44 47.26 835.49 46.79 835.80 49.05 C 834.37 48.91 831.52 48.63 830.10 48.49 Z" />
<path fill="#323232" opacity="0.52" d=" M 48.49 249.90 C 47.26 248.54 46.79 244.50 49.05 244.20 C 48.91 245.63 48.63 248.48 48.49 249.90 Z" />
<path fill="#323232" opacity="0.52" d=" M 1030.95 244.20 C 1033.20 244.49 1032.74 248.55 1031.51 249.91 C 1031.37 248.48 1031.09 245.63 1030.95 244.20 Z" />
<path fill="#323232" opacity="0.52" d=" M 48.49 830.09 C 48.63 831.52 48.91 834.37 49.05 835.80 C 46.79 835.50 47.24 831.43 48.49 830.09 Z" />
<path fill="#323232" opacity="0.52" d=" M 1030.95 835.80 C 1031.09 834.37 1031.37 831.52 1031.52 830.10 C 1032.73 831.44 1033.19 835.49 1030.95 835.80 Z" />
<path fill="#323232" opacity="0.52" d=" M 830.09 1031.51 C 831.52 1031.37 834.37 1031.09 835.80 1030.95 C 835.50 1033.20 831.43 1032.74 830.09 1031.51 Z" />
</g>
<g id="#2f2f2f7c">
<path fill="#2f2f2f" opacity="0.49" d=" M 235.17 50.00 C 235.01 48.17 238.15 48.34 238.99 49.45 C 237.81 50.07 236.47 50.21 235.17 50.00 Z" />
</g>
<g id="#2e2e2e7b">
<path fill="#2e2e2e" opacity="0.48" d=" M 841.01 49.45 C 841.84 48.33 844.99 48.17 844.83 50.02 C 843.51 50.20 842.18 50.07 841.01 49.45 Z" />
<path fill="#2e2e2e" opacity="0.48" d=" M 49.45 238.99 C 48.34 238.15 48.17 235.01 50.00 235.17 C 50.21 236.47 50.07 237.81 49.45 238.99 Z" />
<path fill="#2e2e2e" opacity="0.48" d=" M 1029.98 844.83 C 1029.79 843.51 1029.92 842.18 1030.55 841.01 C 1031.65 841.84 1031.81 844.99 1029.98 844.83 Z" />
<path fill="#2e2e2e" opacity="0.48" d=" M 235.17 1030.00 C 236.47 1029.77 237.81 1029.91 238.99 1030.55 C 238.15 1031.64 235.01 1031.82 235.17 1030.00 Z" />
</g>
<g id="#2d2d2d78">
<path fill="#2d2d2d" opacity="0.47" d=" M 227.17 51.01 C 227.01 49.17 230.14 49.34 230.99 50.45 C 229.81 51.07 228.47 51.22 227.17 51.01 Z" />
<path fill="#2d2d2d" opacity="0.47" d=" M 50.45 230.99 C 49.34 230.14 49.17 227.01 51.01 227.17 C 51.22 228.47 51.07 229.81 50.45 230.99 Z" />
<path fill="#2d2d2d" opacity="0.47" d=" M 1028.99 227.17 C 1030.81 227.01 1030.64 230.14 1029.55 230.99 C 1028.91 229.81 1028.76 228.47 1028.99 227.17 Z" />
<path fill="#2d2d2d" opacity="0.47" d=" M 227.17 1028.99 C 228.47 1028.76 229.81 1028.91 230.99 1029.55 C 230.14 1030.64 227.01 1030.81 227.17 1028.99 Z" />
</g>
<g id="#818181ff">
<path fill="#818181" opacity="1.00" d=" M 599.69 194.70 C 616.23 189.73 633.54 194.90 650.42 192.62 C 667.31 190.10 681.84 200.69 696.03 207.96 C 717.71 226.74 736.96 248.21 757.52 268.14 C 757.47 270.61 759.62 272.24 760.85 274.16 C 737.34 253.13 717.83 227.64 692.72 208.29 C 689.90 205.99 686.40 204.91 683.01 203.86 C 662.14 189.95 636.01 194.38 612.40 194.39 C 601.10 194.27 592.39 201.78 582.24 205.34 C 575.45 209.30 568.84 213.85 563.80 219.97 C 556.67 227.07 549.74 234.39 542.26 241.12 C 540.23 242.50 538.27 243.98 536.25 245.37 C 546.09 233.64 558.00 222.94 569.15 212.14 C 577.56 203.35 589.60 200.82 599.69 194.70 Z" />
</g>
<g id="#a4a4a4ff">
<path fill="#a4a4a4" opacity="1.00" d=" M 612.40 194.39 C 636.01 194.38 662.14 189.95 683.01 203.86 C 681.61 203.94 680.22 204.02 678.83 204.10 C 669.51 201.18 660.98 195.13 650.84 195.98 C 650.43 195.93 649.60 195.84 649.19 195.80 C 629.74 193.93 608.90 192.62 591.87 203.77 C 580.30 204.78 573.83 216.69 563.80 219.97 C 568.84 213.85 575.45 209.30 582.24 205.34 C 592.39 201.78 601.10 194.27 612.40 194.39 Z" />
</g>
<g id="#c6c6c6ff">
<path fill="#c6c6c6" opacity="1.00" d=" M 591.87 203.77 C 608.90 192.62 629.74 193.93 649.19 195.80 C 647.05 195.89 644.92 196.04 642.79 196.12 C 634.00 196.19 625.05 195.35 616.38 196.48 C 609.02 201.11 600.66 204.17 591.87 203.77 Z" />
<path fill="#c6c6c6" opacity="1.00" d=" M 237.39 547.39 C 244.62 541.80 248.65 533.31 256.03 527.88 C 255.45 533.53 248.16 534.69 247.26 540.17 C 246.60 545.45 239.68 545.37 238.69 550.74 C 232.24 553.09 231.09 560.63 224.83 562.91 C 221.97 568.43 217.02 572.44 213.57 577.64 C 211.06 582.67 208.86 587.87 203.73 590.82 C 206.54 579.53 216.87 572.51 220.93 561.99 C 228.19 559.63 231.39 551.62 237.39 547.39 Z" />
</g>
<g id="#e3e3e3ff">
<path fill="#e3e3e3" opacity="1.00" d=" M 616.38 196.48 C 625.05 195.35 634.00 196.19 642.79 196.12 C 645.81 197.37 648.82 198.81 651.28 201.01 C 649.58 204.33 645.85 204.28 642.56 204.47 C 615.22 204.58 587.94 215.96 568.96 235.41 C 561.81 241.51 552.54 247.26 550.21 257.00 C 552.77 270.94 567.38 276.81 573.18 288.86 C 575.21 291.42 580.67 292.35 578.82 296.73 C 574.63 304.25 569.93 288.65 566.06 296.07 C 558.17 306.06 549.36 315.55 539.25 323.37 C 537.70 327.35 545.00 331.35 540.75 334.90 C 535.46 336.65 535.16 329.22 530.78 328.11 C 519.45 322.12 512.58 305.72 498.13 307.08 C 486.04 313.58 478.84 326.69 468.05 335.08 C 457.11 346.46 445.78 357.37 434.56 368.51 C 428.17 372.42 427.38 382.09 432.59 387.38 C 441.27 397.08 450.32 406.61 458.04 417.08 C 457.06 424.16 445.75 418.98 442.12 425.08 C 437.36 436.97 420.20 440.42 420.83 454.89 C 420.50 456.53 418.92 458.33 417.08 458.02 C 406.67 449.84 396.93 440.79 386.96 432.07 C 382.56 427.45 374.72 427.98 370.36 432.33 C 351.72 451.68 332.72 470.67 313.47 489.41 C 305.12 494.80 308.75 507.97 316.29 512.60 C 328.97 526.02 340.76 540.31 352.39 554.64 C 355.67 558.71 347.03 561.90 346.09 556.93 C 344.77 550.12 336.32 553.66 335.79 558.87 C 328.17 568.66 308.22 577.73 315.92 592.96 C 314.39 597.99 306.95 593.51 309.61 588.39 C 303.70 589.31 300.28 584.93 297.45 580.68 C 289.33 576.59 284.65 565.60 275.90 563.77 C 271.53 558.18 266.34 552.99 259.61 550.35 C 253.33 548.86 248.85 554.28 245.92 558.89 C 238.54 564.80 233.12 572.73 226.32 579.33 C 217.07 590.31 212.69 604.12 207.23 617.15 C 203.99 629.50 206.30 642.79 203.06 655.05 C 199.73 660.52 197.77 651.31 196.18 648.75 C 196.16 637.55 195.49 626.29 196.18 615.13 C 200.50 607.72 204.60 599.77 203.73 590.82 C 208.86 587.87 211.06 582.67 213.57 577.64 C 213.45 581.41 212.16 585.47 214.22 588.93 C 219.53 589.65 220.67 583.03 222.22 579.20 C 232.56 569.98 241.30 558.20 251.96 548.97 C 259.78 544.37 265.25 551.88 272.00 554.04 C 275.00 555.70 274.23 561.26 278.42 561.45 C 285.15 559.85 283.05 571.40 289.76 568.88 C 292.24 565.12 288.17 559.07 291.94 554.96 C 298.68 548.11 306.57 542.29 312.14 534.25 C 310.35 527.25 317.84 528.21 319.79 532.21 C 321.87 536.60 330.37 533.07 327.27 528.76 C 320.02 516.99 301.44 507.34 309.06 491.05 C 330.71 471.27 350.83 449.39 372.14 429.14 C 380.05 423.10 387.56 432.96 395.87 432.04 C 397.35 428.51 397.07 422.64 402.01 422.01 C 406.19 421.68 404.36 415.39 408.46 414.60 C 415.95 416.17 412.24 407.07 417.43 405.60 C 424.17 406.21 420.62 396.04 428.00 397.04 C 436.54 396.27 430.25 386.77 428.33 382.68 C 425.55 378.35 429.01 373.00 431.27 369.28 C 452.23 349.26 472.37 328.31 493.04 308.05 C 498.85 303.01 506.22 305.46 512.12 308.84 C 516.53 309.54 515.91 305.41 515.54 302.38 C 520.84 293.79 528.70 287.51 535.89 280.90 C 537.53 277.54 540.30 275.12 543.68 273.64 C 546.62 271.39 552.37 273.75 552.89 269.02 C 550.93 263.75 546.79 257.77 550.20 252.17 C 557.20 242.19 566.81 234.00 576.10 226.16 C 578.36 219.79 588.54 221.69 589.06 214.13 C 585.73 213.09 582.21 213.04 578.77 212.67 C 583.89 210.69 587.95 207.55 591.87 203.77 C 600.66 204.17 609.02 201.11 616.38 196.48 Z" />
</g>
<g id="#d6d6d6ff">
<path fill="#d6d6d6" opacity="1.00" d=" M 642.79 196.12 C 644.92 196.04 647.05 195.89 649.19 195.80 C 649.60 195.84 650.43 195.93 650.84 195.98 C 658.62 201.78 667.52 204.04 676.93 205.06 C 682.89 205.68 681.53 215.58 689.02 213.06 C 695.28 213.62 695.68 224.00 688.12 221.89 C 655.59 203.04 611.16 204.20 581.41 228.47 C 572.09 235.73 564.40 244.76 555.38 252.35 C 553.25 254.95 553.31 259.01 555.36 261.65 C 600.76 312.47 648.76 360.86 697.28 408.73 C 701.09 411.66 703.05 415.93 704.85 420.22 C 712.44 427.72 712.34 442.38 704.71 449.70 C 703.44 456.05 699.58 459.81 693.07 460.05 C 689.19 467.15 679.42 468.15 672.37 465.62 C 652.99 456.52 640.19 438.64 624.65 424.40 C 585.88 385.10 545.34 347.50 504.35 310.60 C 496.75 306.89 493.32 315.81 488.74 319.74 C 471.30 336.94 454.37 354.70 436.56 371.51 C 432.49 373.76 430.45 379.52 433.67 383.34 C 460.62 412.30 486.54 442.42 515.06 469.95 C 525.21 481.20 540.50 493.07 536.39 510.34 C 536.35 516.69 530.29 519.80 528.42 525.42 C 519.77 532.65 508.36 540.41 496.39 535.61 C 490.04 530.84 482.19 528.27 477.22 521.78 C 451.32 494.26 422.64 469.67 395.10 443.88 C 388.95 439.94 383.80 428.45 374.97 432.98 C 354.65 454.65 332.88 475.02 312.26 496.43 C 310.43 505.96 320.64 510.91 325.71 517.28 C 366.60 562.70 406.62 608.92 450.70 651.30 C 457.41 656.16 457.92 664.80 463.67 670.32 C 466.11 677.54 467.04 688.04 459.94 692.86 C 459.46 698.60 455.78 703.65 449.48 703.55 C 443.45 712.34 427.54 712.50 421.51 703.55 C 413.89 703.23 409.91 696.68 405.16 691.82 C 376.82 662.66 348.96 633.36 318.23 606.76 C 299.57 590.11 282.41 571.91 263.73 555.28 C 261.24 552.76 256.97 551.91 253.95 553.93 C 237.58 570.58 219.95 587.94 212.85 610.92 C 202.86 638.41 209.76 669.51 223.13 693.79 C 228.65 693.72 231.01 704.25 224.23 701.84 C 221.72 698.31 219.74 694.02 214.80 694.10 C 211.50 689.86 211.08 683.78 205.38 681.59 C 203.05 673.47 202.70 663.86 195.82 657.96 C 195.89 654.83 196.07 651.83 196.18 648.75 C 197.77 651.31 199.73 660.52 203.06 655.05 C 206.30 642.79 203.99 629.50 207.23 617.15 C 212.69 604.12 217.07 590.31 226.32 579.33 C 233.12 572.73 238.54 564.80 245.92 558.89 C 248.85 554.28 253.33 548.86 259.61 550.35 C 266.34 552.99 271.53 558.18 275.90 563.77 C 290.30 578.75 305.76 592.94 321.71 606.22 C 325.51 607.31 326.40 611.58 329.32 613.82 C 332.08 613.84 335.02 614.31 337.82 613.91 C 340.80 606.51 345.14 598.95 352.60 595.64 C 353.45 590.49 357.86 589.06 361.58 586.63 C 361.40 581.33 370.16 575.65 372.19 581.86 C 372.62 586.22 380.60 586.17 378.76 581.30 C 357.64 554.61 334.01 530.06 311.41 504.60 C 308.21 499.35 310.49 493.34 315.49 490.46 C 333.47 472.14 352.03 454.28 369.79 435.79 C 373.02 430.11 381.01 428.05 385.92 433.07 C 401.13 447.92 417.44 461.66 433.43 475.69 C 439.49 478.57 439.68 471.71 441.31 468.29 C 444.49 465.64 448.45 463.75 449.59 459.44 C 453.99 457.20 457.25 453.92 459.38 449.46 C 463.57 448.20 465.69 444.53 468.30 441.32 C 471.70 439.66 478.61 439.49 475.67 433.42 C 462.36 416.51 447.13 401.24 432.84 385.17 C 428.96 380.48 430.47 372.73 435.85 369.90 C 455.69 350.10 475.95 330.48 495.17 310.17 C 500.86 305.40 508.19 310.06 512.26 314.73 C 524.94 327.42 538.73 338.96 552.13 350.88 C 554.29 353.38 557.29 354.15 560.54 354.40 C 561.40 357.53 562.26 362.64 566.76 360.89 C 570.55 357.65 565.94 353.25 562.06 353.59 C 561.16 344.97 571.44 344.81 573.41 337.48 C 579.95 335.36 581.03 327.57 587.62 325.64 C 588.65 320.80 592.74 318.04 597.59 318.06 C 597.25 321.94 601.65 326.56 604.89 322.76 C 606.51 318.78 602.30 317.83 599.62 316.42 C 596.64 307.66 588.44 302.16 582.93 295.06 C 573.70 283.06 561.56 273.49 552.96 261.05 C 547.60 248.51 567.38 244.54 568.96 235.41 C 587.94 215.96 615.22 204.58 642.56 204.47 C 645.85 204.28 649.58 204.33 651.28 201.01 C 648.82 198.81 645.81 197.37 642.79 196.12 Z" />
</g>
<g id="#ccccccff">
<path fill="#cccccc" opacity="1.00" d=" M 650.84 195.98 C 660.98 195.13 669.51 201.18 678.83 204.10 C 690.39 212.43 702.62 220.48 712.00 231.82 C 714.89 236.67 719.51 240.42 721.20 245.97 C 717.16 247.00 712.73 246.04 710.52 242.43 C 699.30 234.18 688.46 225.07 675.41 219.55 C 639.05 202.04 592.89 214.00 568.04 245.07 C 563.17 248.84 552.41 255.94 559.27 262.76 C 598.78 305.17 638.50 347.45 679.85 388.13 C 689.72 399.34 702.74 407.87 709.19 421.80 C 717.41 437.66 708.35 457.67 692.73 464.70 C 680.23 472.81 664.43 467.04 654.65 457.37 C 609.25 412.44 563.94 367.28 516.35 324.63 C 511.40 320.72 507.74 314.09 501.08 313.01 C 496.55 314.71 493.06 318.46 490.37 322.37 C 475.97 336.36 461.93 350.53 447.83 364.81 C 444.16 370.08 437.22 372.58 435.06 378.99 C 438.28 388.26 447.02 393.66 453.22 400.78 C 474.36 424.91 496.58 448.05 519.27 470.73 C 527.22 479.26 537.52 488.06 538.54 500.45 C 541.64 517.10 528.32 532.06 513.62 537.61 C 498.78 542.95 484.91 533.06 474.90 523.13 C 446.26 493.73 415.63 466.38 385.68 438.33 C 382.63 435.41 377.56 433.17 374.58 437.55 C 357.90 455.47 339.65 471.93 323.01 490.01 C 316.34 492.19 311.92 500.66 318.03 505.97 C 338.69 527.30 357.96 550.02 378.21 571.78 C 400.59 597.65 425.47 621.23 448.75 646.25 C 458.30 655.24 468.09 666.82 467.74 680.68 C 468.37 689.00 462.19 695.07 459.06 702.16 C 458.77 702.33 458.21 702.68 457.93 702.86 C 449.79 707.75 441.39 713.72 431.30 711.74 C 413.27 708.22 402.91 691.35 389.94 680.06 C 351.81 640.57 310.97 603.72 271.72 565.29 C 267.13 561.88 263.42 555.48 257.26 555.27 C 253.17 558.35 249.67 562.42 246.31 566.34 C 220.39 588.76 204.83 624.75 212.99 659.01 C 216.50 679.53 231.01 695.28 243.02 710.97 C 246.79 712.15 248.86 721.12 243.11 719.99 C 232.55 712.78 223.67 703.26 214.80 694.10 C 219.74 694.02 221.72 698.31 224.23 701.84 C 231.01 704.25 228.65 693.72 223.13 693.79 C 209.76 669.51 202.86 638.41 212.85 610.92 C 219.95 587.94 237.58 570.58 253.95 553.93 C 256.97 551.91 261.24 552.76 263.73 555.28 C 282.41 571.91 299.57 590.11 318.23 606.76 C 348.96 633.36 376.82 662.66 405.16 691.82 C 409.91 696.68 413.89 703.23 421.51 703.55 C 427.54 712.50 443.45 712.34 449.48 703.55 C 455.78 703.65 459.46 698.60 459.94 692.86 C 467.04 688.04 466.11 677.54 463.67 670.32 C 457.92 664.80 457.41 656.16 450.70 651.30 C 406.62 608.92 366.60 562.70 325.71 517.28 C 320.64 510.91 310.43 505.96 312.26 496.43 C 332.88 475.02 354.65 454.65 374.97 432.98 C 383.80 428.45 388.95 439.94 395.10 443.88 C 422.64 469.67 451.32 494.26 477.22 521.78 C 482.19 528.27 490.04 530.84 496.39 535.61 C 508.36 540.41 519.77 532.65 528.42 525.42 C 530.29 519.80 536.35 516.69 536.39 510.34 C 540.50 493.07 525.21 481.20 515.06 469.95 C 486.54 442.42 460.62 412.30 433.67 383.34 C 430.45 379.52 432.49 373.76 436.56 371.51 C 454.37 354.70 471.30 336.94 488.74 319.74 C 493.32 315.81 496.75 306.89 504.35 310.60 C 545.34 347.50 585.88 385.10 624.65 424.40 C 640.19 438.64 652.99 456.52 672.37 465.62 C 679.42 468.15 689.19 467.15 693.07 460.05 C 699.58 459.81 703.44 456.05 704.71 449.70 C 712.34 442.38 712.44 427.72 704.85 420.22 C 703.05 415.93 701.09 411.66 697.28 408.73 C 648.76 360.86 600.76 312.47 555.36 261.65 C 553.31 259.01 553.25 254.95 555.38 252.35 C 564.40 244.76 572.09 235.73 581.41 228.47 C 611.16 204.20 655.59 203.04 688.12 221.89 C 695.68 224.00 695.28 213.62 689.02 213.06 C 681.53 215.58 682.89 205.68 676.93 205.06 C 667.52 204.04 658.62 201.78 650.84 195.98 Z" />
</g>
<g id="#c8c8c8ff">
<path fill="#c8c8c8" opacity="1.00" d=" M 563.80 219.97 C 573.83 216.69 580.30 204.78 591.87 203.77 C 587.95 207.55 583.89 210.69 578.77 212.67 C 573.58 215.01 571.21 221.05 565.70 222.76 C 561.64 223.96 561.97 229.59 557.86 230.82 C 553.99 232.17 553.30 236.87 550.16 239.06 C 530.09 253.66 513.98 274.13 495.06 291.06 C 490.48 293.01 492.35 300.02 487.14 301.19 C 483.13 302.29 484.04 307.98 479.99 309.01 C 474.66 309.88 475.60 316.49 471.05 318.09 C 466.95 319.05 466.50 323.49 463.91 325.87 C 457.28 327.42 457.12 335.94 450.24 337.24 C 448.71 341.58 445.72 344.51 441.48 346.41 C 439.42 352.95 431.58 353.99 429.52 360.51 C 425.09 361.78 422.76 365.71 419.84 368.70 C 412.87 369.18 411.65 378.24 404.89 379.00 C 408.21 375.32 411.68 371.77 415.00 368.09 C 430.32 358.74 440.88 343.12 454.51 331.49 C 465.41 318.74 479.70 308.77 489.06 294.88 C 506.44 276.68 525.01 259.27 542.26 241.12 C 549.74 234.39 556.67 227.07 563.80 219.97 Z" />
</g>
<g id="#bababaff">
<path fill="#bababa" opacity="1.00" d=" M 678.83 204.10 C 680.22 204.02 681.61 203.94 683.01 203.86 C 695.00 213.05 707.38 222.00 717.39 233.54 C 723.34 241.45 732.15 246.85 737.15 255.52 C 739.80 259.20 743.37 262.12 746.02 265.85 C 748.51 270.82 753.80 274.13 755.02 279.81 C 747.64 284.83 745.33 273.59 738.40 273.52 C 733.28 266.50 724.16 265.07 718.38 258.60 C 707.44 249.85 696.76 240.97 685.94 232.08 C 680.21 227.15 671.31 230.73 669.44 237.59 C 653.99 255.66 635.74 271.17 619.65 288.67 C 615.14 294.86 606.68 295.59 600.04 293.13 C 596.93 293.02 597.54 298.21 600.45 298.42 C 608.21 296.92 603.76 307.32 609.38 308.56 C 614.58 309.65 613.57 316.80 618.67 318.34 C 634.06 335.99 650.28 353.39 667.04 370.08 C 680.67 384.39 695.65 397.60 707.95 413.05 C 720.03 427.12 717.27 450.36 702.78 461.78 C 695.23 466.59 687.76 473.39 677.99 471.10 C 664.19 473.05 654.60 460.85 645.23 452.77 C 632.07 439.60 618.57 426.85 605.01 414.11 C 593.90 401.84 581.28 391.07 569.14 379.86 C 563.41 377.11 561.80 370.16 555.43 368.52 C 552.89 365.02 550.81 360.39 545.34 361.56 C 541.23 361.02 543.83 352.21 538.33 354.30 C 534.09 354.57 537.53 358.28 538.41 360.42 C 539.57 365.30 537.66 370.63 534.12 374.10 C 520.75 387.06 507.76 400.44 494.47 413.48 C 489.66 417.86 482.48 416.69 477.18 414.03 C 474.22 418.05 478.74 422.52 483.28 421.74 C 480.89 430.52 491.99 429.54 492.59 436.57 C 504.30 448.14 514.81 461.51 527.00 473.15 C 540.69 483.20 545.91 501.00 540.97 517.01 C 535.25 527.27 526.76 536.03 516.14 541.15 C 504.62 543.24 491.87 544.15 483.17 534.92 C 470.36 523.75 457.94 512.16 445.53 500.65 C 439.91 498.53 439.06 491.29 432.35 490.65 C 431.07 485.18 426.87 483.47 421.45 482.68 C 422.34 479.39 418.18 473.26 415.06 477.22 C 416.80 483.00 418.15 490.50 413.04 495.05 C 401.60 506.24 390.51 517.80 379.00 528.94 C 374.67 533.43 370.21 540.33 362.95 537.22 C 357.04 538.65 359.59 526.24 352.66 530.67 C 351.67 538.19 362.24 542.61 364.44 549.58 C 367.87 552.01 370.96 554.64 372.14 558.88 C 383.25 567.48 390.56 580.35 400.92 590.08 C 407.86 598.46 415.79 605.94 423.03 614.09 C 438.40 631.27 457.17 646.04 468.79 666.20 C 480.68 692.84 449.72 724.38 422.81 713.13 C 399.65 698.36 382.67 676.00 362.07 658.04 C 345.22 638.83 324.64 623.30 307.00 605.04 C 300.08 605.53 302.01 597.02 295.98 595.95 C 291.39 597.36 291.97 604.93 297.05 604.95 C 300.57 604.86 298.25 609.51 297.10 611.11 C 275.87 631.54 255.77 653.14 234.23 673.23 C 229.85 675.07 227.19 679.47 230.33 683.69 C 244.99 702.52 262.05 719.91 274.46 740.39 C 274.58 745.52 281.81 746.58 281.04 751.92 C 280.93 754.33 277.62 753.90 275.92 754.28 C 267.68 745.08 255.97 739.09 248.74 729.10 C 253.43 730.74 255.87 735.63 260.39 737.57 C 264.57 738.89 266.03 745.29 271.08 744.02 C 271.77 739.69 267.66 738.47 264.40 737.54 C 263.21 734.48 265.52 729.42 261.03 727.95 C 256.46 725.07 257.09 718.32 251.56 716.40 C 242.71 701.28 228.29 690.16 221.07 673.99 C 218.38 661.11 211.44 649.08 213.37 635.42 C 213.44 628.35 214.35 621.02 220.01 616.16 C 222.53 609.54 219.26 597.41 228.57 595.50 C 232.17 584.82 241.44 576.47 249.83 568.86 C 252.72 564.97 256.88 560.43 261.94 559.99 C 310.14 604.98 359.20 650.86 405.73 698.27 C 415.25 708.23 429.18 716.97 443.41 712.47 C 448.73 710.33 454.70 707.90 457.93 702.86 C 458.21 702.68 458.77 702.33 459.06 702.16 C 468.65 695.77 470.39 681.91 468.65 671.31 C 464.77 661.49 458.64 652.32 450.41 645.61 C 429.22 622.49 406.72 600.58 385.98 577.03 C 364.75 554.14 345.06 530.09 323.49 507.57 C 318.90 505.12 315.46 497.46 321.41 494.55 C 328.14 493.80 329.85 486.31 335.51 483.51 C 338.37 477.98 344.97 476.07 347.32 470.27 C 356.60 464.15 362.37 454.19 371.46 447.57 C 372.43 439.75 386.67 436.24 387.54 445.60 C 389.21 449.71 396.22 448.12 397.20 453.82 C 417.06 470.26 435.78 488.58 454.75 506.24 C 466.94 517.42 477.96 530.18 492.43 538.52 C 519.99 550.47 553.33 514.93 536.50 488.58 C 523.56 469.68 505.23 455.06 490.23 437.77 C 479.50 425.28 467.88 413.43 457.33 400.84 C 457.03 395.24 448.65 397.03 448.75 391.16 C 448.30 384.70 436.43 388.09 440.13 379.13 C 440.10 372.02 449.25 373.10 451.19 367.15 C 464.16 354.70 476.41 342.10 489.16 329.19 C 495.04 327.02 494.06 318.68 501.12 318.03 C 506.90 315.83 508.46 321.92 510.46 325.52 C 518.02 326.74 520.17 335.14 526.85 338.06 C 567.59 373.81 606.36 412.69 645.57 450.47 C 655.13 461.25 668.15 472.31 683.61 469.64 C 692.18 469.55 698.49 462.74 704.80 457.82 C 715.56 446.57 717.31 427.03 707.16 414.81 C 697.53 401.68 684.30 391.70 673.65 379.38 C 650.56 356.46 628.35 332.67 605.89 309.13 C 596.85 297.29 584.19 288.11 576.50 275.58 C 572.46 274.22 570.65 270.51 569.11 266.89 C 565.73 264.86 559.47 263.87 561.98 257.98 C 562.32 249.84 572.37 250.67 574.40 243.38 C 581.54 238.85 585.81 229.41 595.20 229.24 C 596.73 218.23 610.90 223.89 617.89 219.85 C 625.17 212.36 636.99 213.98 646.39 214.57 C 658.51 219.03 672.32 219.00 683.04 226.94 C 699.80 238.36 715.60 251.67 731.42 263.43 C 737.72 261.54 738.28 266.74 740.70 270.34 C 742.28 272.37 746.54 270.00 744.41 267.64 C 733.10 256.35 724.41 241.90 712.00 231.82 C 702.62 220.48 690.39 212.43 678.83 204.10 Z" />
</g>
<g id="#999999ff">
<path fill="#999999" opacity="1.00" d=" M 683.01 203.86 C 686.40 204.91 689.90 205.99 692.72 208.29 C 717.83 227.64 737.34 253.13 760.85 274.16 C 761.10 274.39 761.59 274.83 761.83 275.05 C 763.69 280.76 769.49 283.47 772.87 288.14 C 794.48 310.87 816.97 332.72 839.40 354.63 C 851.49 367.88 865.93 379.59 874.12 395.85 C 879.00 404.51 881.97 414.11 885.25 423.46 C 885.07 426.70 884.96 430.01 884.74 433.28 C 883.85 423.67 877.36 415.97 876.54 406.34 C 875.58 402.25 873.39 398.53 870.15 395.87 C 863.95 379.19 847.91 368.63 836.48 355.54 C 803.69 324.29 772.28 291.59 741.97 258.04 C 740.64 256.76 739.12 255.41 737.15 255.52 C 732.15 246.85 723.34 241.45 717.39 233.54 C 707.38 222.00 695.00 213.05 683.01 203.86 Z" />
<path fill="#999999" opacity="1.00" d=" M 536.25 245.37 C 538.27 243.98 540.23 242.50 542.26 241.12 C 525.01 259.27 506.44 276.68 489.06 294.88 C 487.39 296.26 485.73 297.67 484.11 299.12 L 484.20 298.15 C 500.49 279.92 518.77 262.78 536.25 245.37 Z" />
<path fill="#999999" opacity="1.00" d=" M 837.53 395.52 C 835.54 393.21 831.25 387.13 837.00 386.94 C 841.36 388.63 844.60 392.96 848.86 395.20 C 858.96 402.44 860.82 414.64 865.82 425.14 C 871.20 443.82 868.86 465.60 859.85 481.98 C 859.88 473.45 865.82 466.48 866.16 458.03 C 867.80 445.62 868.20 431.32 860.13 420.89 C 858.27 415.54 858.55 401.21 848.95 405.87 C 727.61 528.79 603.98 651.08 481.75 773.75 C 456.44 798.37 432.27 824.73 406.11 848.10 C 405.34 850.95 403.68 855.13 407.35 856.65 C 413.59 858.52 420.52 858.83 425.72 863.24 C 441.11 869.56 459.34 868.29 474.35 861.36 C 476.78 860.41 479.37 860.03 481.96 859.80 C 455.68 874.16 417.16 870.71 395.20 848.88 C 392.36 844.50 386.58 840.80 387.12 835.23 C 390.46 832.36 393.30 836.45 396.15 837.96 C 400.95 838.81 402.25 832.61 405.08 830.09 C 547.58 687.60 690.08 545.10 832.57 402.60 C 834.92 400.45 840.81 400.68 837.53 395.52 Z" />
</g>
<g id="#c2c2c2ff">
<path fill="#c2c2c2" opacity="1.00" d=" M 568.04 245.07 C 592.89 214.00 639.05 202.04 675.41 219.55 C 688.46 225.07 699.30 234.18 710.52 242.43 C 712.73 246.04 717.16 247.00 721.20 245.97 C 719.51 240.42 714.89 236.67 712.00 231.82 C 724.41 241.90 733.10 256.35 744.41 267.64 C 746.54 270.00 742.28 272.37 740.70 270.34 C 738.28 266.74 737.72 261.54 731.42 263.43 C 715.60 251.67 699.80 238.36 683.04 226.94 C 672.32 219.00 658.51 219.03 646.39 214.57 C 636.99 213.98 625.17 212.36 617.89 219.85 C 610.90 223.89 596.73 218.23 595.20 229.24 C 585.81 229.41 581.54 238.85 574.40 243.38 C 572.37 250.67 562.32 249.84 561.98 257.98 C 559.47 263.87 565.73 264.86 569.11 266.89 C 570.65 270.51 572.46 274.22 576.50 275.58 C 584.19 288.11 596.85 297.29 605.89 309.13 C 628.35 332.67 650.56 356.46 673.65 379.38 C 684.30 391.70 697.53 401.68 707.16 414.81 C 717.31 427.03 715.56 446.57 704.80 457.82 C 698.49 462.74 692.18 469.55 683.61 469.64 C 668.15 472.31 655.13 461.25 645.57 450.47 C 606.36 412.69 567.59 373.81 526.85 338.06 C 520.17 335.14 518.02 326.74 510.46 325.52 C 508.46 321.92 506.90 315.83 501.12 318.03 C 494.06 318.68 495.04 327.02 489.16 329.19 C 476.41 342.10 464.16 354.70 451.19 367.15 C 449.25 373.10 440.10 372.02 440.13 379.13 C 436.43 388.09 448.30 384.70 448.75 391.16 C 448.65 397.03 457.03 395.24 457.33 400.84 C 467.88 413.43 479.50 425.28 490.23 437.77 C 505.23 455.06 523.56 469.68 536.50 488.58 C 553.33 514.93 519.99 550.47 492.43 538.52 C 477.96 530.18 466.94 517.42 454.75 506.24 C 435.78 488.58 417.06 470.26 397.20 453.82 C 396.22 448.12 389.21 449.71 387.54 445.60 C 386.67 436.24 372.43 439.75 371.46 447.57 C 362.37 454.19 356.60 464.15 347.32 470.27 C 344.97 476.07 338.37 477.98 335.51 483.51 C 329.85 486.31 328.14 493.80 321.41 494.55 C 315.46 497.46 318.90 505.12 323.49 507.57 C 345.06 530.09 364.75 554.14 385.98 577.03 C 406.72 600.58 429.22 622.49 450.41 645.61 C 458.64 652.32 464.77 661.49 468.65 671.31 C 470.39 681.91 468.65 695.77 459.06 702.16 C 462.19 695.07 468.37 689.00 467.74 680.68 C 468.09 666.82 458.30 655.24 448.75 646.25 C 425.47 621.23 400.59 597.65 378.21 571.78 C 357.96 550.02 338.69 527.30 318.03 505.97 C 311.92 500.66 316.34 492.19 323.01 490.01 C 339.65 471.93 357.90 455.47 374.58 437.55 C 377.56 433.17 382.63 435.41 385.68 438.33 C 415.63 466.38 446.26 493.73 474.90 523.13 C 484.91 533.06 498.78 542.95 513.62 537.61 C 528.32 532.06 541.64 517.10 538.54 500.45 C 537.52 488.06 527.22 479.26 519.27 470.73 C 496.58 448.05 474.36 424.91 453.22 400.78 C 447.02 393.66 438.28 388.26 435.06 378.99 C 437.22 372.58 444.16 370.08 447.83 364.81 C 461.93 350.53 475.97 336.36 490.37 322.37 C 493.06 318.46 496.55 314.71 501.08 313.01 C 507.74 314.09 511.40 320.72 516.35 324.63 C 563.94 367.28 609.25 412.44 654.65 457.37 C 664.43 467.04 680.23 472.81 692.73 464.70 C 708.35 457.67 717.41 437.66 709.19 421.80 C 702.74 407.87 689.72 399.34 679.85 388.13 C 638.50 347.45 598.78 305.17 559.27 262.76 C 552.41 255.94 563.17 248.84 568.04 245.07 Z" />
</g>
<g id="#e8e8e8ff">
<path fill="#e8e8e8" opacity="1.00" d=" M 565.70 222.76 C 571.21 221.05 573.58 215.01 578.77 212.67 C 582.21 213.04 585.73 213.09 589.06 214.13 C 588.54 221.69 578.36 219.79 576.10 226.16 C 566.81 234.00 557.20 242.19 550.20 252.17 C 546.79 257.77 550.93 263.75 552.89 269.02 C 552.37 273.75 546.62 271.39 543.68 273.64 C 540.30 275.12 537.53 277.54 535.89 280.90 C 528.70 287.51 520.84 293.79 515.54 302.38 C 515.91 305.41 516.53 309.54 512.12 308.84 C 506.22 305.46 498.85 303.01 493.04 308.05 C 472.37 328.31 452.23 349.26 431.27 369.28 C 429.01 373.00 425.55 378.35 428.33 382.68 C 430.25 386.77 436.54 396.27 428.00 397.04 C 420.62 396.04 424.17 406.21 417.43 405.60 C 412.24 407.07 415.95 416.17 408.46 414.60 C 404.36 415.39 406.19 421.68 402.01 422.01 C 397.07 422.64 397.35 428.51 395.87 432.04 C 387.56 432.96 380.05 423.10 372.14 429.14 C 350.83 449.39 330.71 471.27 309.06 491.05 C 301.44 507.34 320.02 516.99 327.27 528.76 C 330.37 533.07 321.87 536.60 319.79 532.21 C 317.84 528.21 310.35 527.25 312.14 534.25 C 306.57 542.29 298.68 548.11 291.94 554.96 C 288.17 559.07 292.24 565.12 289.76 568.88 C 283.05 571.40 285.15 559.85 278.42 561.45 C 274.23 561.26 275.00 555.70 272.00 554.04 C 265.25 551.88 259.78 544.37 251.96 548.97 C 241.30 558.20 232.56 569.98 222.22 579.20 C 220.67 583.03 219.53 589.65 214.22 588.93 C 212.16 585.47 213.45 581.41 213.57 577.64 C 217.02 572.44 221.97 568.43 224.83 562.91 C 231.09 560.63 232.24 553.09 238.69 550.74 C 239.68 545.37 246.60 545.45 247.26 540.17 C 248.16 534.69 255.45 533.53 256.03 527.88 C 268.60 515.85 280.53 503.17 292.82 490.86 C 295.93 490.53 298.94 489.44 300.57 486.59 C 302.26 483.01 307.49 483.64 308.82 479.86 C 310.45 474.94 316.96 474.42 318.58 469.47 C 335.53 452.76 352.08 436.79 368.43 419.54 C 369.64 413.50 377.19 411.88 377.94 405.79 C 387.59 397.52 395.89 388.04 404.89 379.00 C 411.65 378.24 412.87 369.18 419.84 368.70 C 422.76 365.71 425.09 361.78 429.52 360.51 C 431.58 353.99 439.42 352.95 441.48 346.41 C 445.72 344.51 448.71 341.58 450.24 337.24 C 457.12 335.94 457.28 327.42 463.91 325.87 C 466.50 323.49 466.95 319.05 471.05 318.09 C 475.60 316.49 474.66 309.88 479.99 309.01 C 484.04 307.98 483.13 302.29 487.14 301.19 C 492.35 300.02 490.48 293.01 495.06 291.06 C 513.98 274.13 530.09 253.66 550.16 239.06 C 553.30 236.87 553.99 232.17 557.86 230.82 C 561.97 229.59 561.64 223.96 565.70 222.76 M 540.29 249.27 C 537.41 250.05 536.19 252.72 535.17 255.23 C 533.26 258.26 527.77 257.19 527.55 261.65 C 526.83 267.03 519.03 265.28 518.85 270.91 C 517.79 275.73 510.71 274.20 510.16 279.11 C 509.45 284.47 501.52 282.61 501.16 288.11 C 499.97 293.81 489.30 292.92 493.08 300.75 C 496.77 303.72 502.35 301.29 506.76 300.74 C 509.74 297.70 510.90 292.79 515.33 291.33 C 524.97 281.69 534.03 271.54 544.75 262.72 C 545.92 257.80 548.48 247.50 540.29 249.27 M 416.26 371.13 C 413.10 373.20 414.77 378.70 410.11 379.15 C 404.56 379.41 406.52 387.81 401.00 388.00 C 396.59 388.00 397.35 393.56 394.71 395.70 C 392.19 396.98 388.00 397.33 388.00 401.00 C 387.92 406.26 379.97 404.27 379.44 409.35 C 379.28 414.87 371.73 413.15 371.01 418.06 C 368.40 427.68 380.54 423.93 385.78 422.75 C 388.04 418.64 391.22 415.54 395.12 413.12 C 397.33 409.65 399.79 406.41 403.62 404.59 C 406.27 401.21 408.46 397.41 412.62 395.59 C 415.32 391.92 417.99 388.38 422.23 386.24 C 425.91 380.66 427.21 367.15 416.26 371.13 M 295.33 492.27 C 290.27 493.02 293.33 500.90 287.65 500.60 C 281.92 500.50 284.51 509.43 279.11 509.23 C 275.17 509.46 274.09 513.48 273.65 516.72 C 270.37 518.28 265.46 518.68 265.40 523.34 C 265.39 527.88 258.79 526.02 257.69 529.69 C 257.25 534.39 253.52 535.96 250.12 538.20 C 246.49 548.46 260.08 545.16 265.06 544.06 C 276.87 531.66 288.32 518.44 301.73 507.72 C 303.82 502.78 304.69 497.33 305.03 492.00 C 302.60 492.07 297.75 492.21 295.33 492.27 Z" />
</g>
<g id="#b4b4b4ff">
<path fill="#b4b4b4" opacity="1.00" d=" M 669.44 237.59 C 671.31 230.73 680.21 227.15 685.94 232.08 C 696.76 240.97 707.44 249.85 718.38 258.60 C 724.16 265.07 733.28 266.50 738.40 273.52 C 745.33 273.59 747.64 284.83 755.02 279.81 C 753.80 274.13 748.51 270.82 746.02 265.85 C 752.13 269.98 756.05 276.60 761.05 281.92 C 761.64 284.07 764.49 287.30 761.70 288.89 C 757.08 291.01 754.81 286.42 751.54 284.62 C 731.38 277.12 717.31 259.55 698.99 249.01 C 694.24 250.84 698.93 254.58 701.93 255.27 C 702.07 260.91 699.31 265.88 693.27 266.25 C 691.56 269.77 691.13 274.24 686.16 274.27 C 681.89 275.26 684.48 282.58 679.16 282.26 C 672.82 282.38 675.87 291.88 669.37 291.50 C 664.42 291.88 666.86 299.53 661.84 299.73 C 657.32 299.85 657.10 304.37 655.63 307.57 C 652.67 308.73 648.41 309.12 648.26 313.16 C 648.08 318.16 641.69 316.69 639.36 320.28 C 634.85 321.72 628.14 317.96 624.77 321.99 C 626.12 325.82 632.40 323.80 631.94 329.07 C 631.63 335.53 640.52 333.42 640.62 339.36 C 640.80 344.36 648.08 342.78 648.37 347.64 C 652.24 356.75 663.59 360.53 667.04 370.08 C 650.28 353.39 634.06 335.99 618.67 318.34 C 613.57 316.80 614.58 309.65 609.38 308.56 C 603.76 307.32 608.21 296.92 600.45 298.42 C 597.54 298.21 596.93 293.02 600.04 293.13 C 606.68 295.59 615.14 294.86 619.65 288.67 C 635.74 271.17 653.99 255.66 669.44 237.59 Z" />
<path fill="#b4b4b4" opacity="1.00" d=" M 538.33 354.30 C 543.83 352.21 541.23 361.02 545.34 361.56 C 550.81 360.39 552.89 365.02 555.43 368.52 C 561.80 370.16 563.41 377.11 569.14 379.86 C 581.28 391.07 593.90 401.84 605.01 414.11 C 598.91 412.22 596.70 405.09 590.48 403.39 C 588.79 396.14 579.68 397.42 578.25 390.69 C 576.37 385.66 566.70 390.58 568.40 382.45 C 568.20 379.17 563.40 380.04 564.03 382.97 C 567.41 390.22 563.04 397.45 559.59 403.49 C 556.46 404.35 552.49 405.19 552.26 409.16 C 552.33 414.87 543.53 411.81 543.73 417.84 C 543.59 423.24 535.17 420.49 535.25 426.16 C 535.30 431.99 526.25 429.21 526.26 435.16 C 526.08 440.16 519.69 438.69 517.36 442.28 C 513.21 443.15 508.52 441.84 504.20 442.30 C 500.54 445.27 506.91 447.08 509.23 447.79 C 510.21 451.02 510.25 455.74 514.38 456.55 C 519.45 457.01 517.39 463.95 521.69 465.26 C 525.82 465.87 526.80 469.51 527.00 473.15 C 514.81 461.51 504.30 448.14 492.59 436.57 C 491.99 429.54 480.89 430.52 483.28 421.74 C 478.74 422.52 474.22 418.05 477.18 414.03 C 482.48 416.69 489.66 417.86 494.47 413.48 C 507.76 400.44 520.75 387.06 534.12 374.10 C 537.66 370.63 539.57 365.30 538.41 360.42 C 537.53 358.28 534.09 354.57 538.33 354.30 Z" />
<path fill="#b4b4b4" opacity="1.00" d=" M 415.06 477.22 C 418.18 473.26 422.34 479.39 421.45 482.68 C 426.87 483.47 431.07 485.18 432.35 490.65 C 439.06 491.29 439.91 498.53 445.53 500.65 C 457.94 512.16 470.36 523.75 483.17 534.92 C 474.08 533.22 469.38 523.64 462.32 518.74 C 455.11 518.04 456.93 506.89 447.74 509.28 C 447.46 505.21 446.26 501.70 441.91 503.02 C 445.66 510.82 441.33 518.99 437.59 525.50 C 434.26 526.22 430.66 527.35 430.38 531.36 C 430.06 536.80 421.57 533.88 421.72 539.83 C 421.54 544.86 413.88 542.41 413.50 547.37 C 413.27 550.45 411.44 552.26 408.38 552.51 C 402.95 552.96 405.74 561.23 400.20 561.35 C 394.87 564.18 388.77 565.35 382.78 564.46 C 383.18 568.32 388.36 569.10 388.86 573.12 C 389.51 577.79 395.54 577.91 396.55 582.38 C 397.80 587.55 404.80 587.88 405.79 593.29 C 411.73 599.75 419.55 605.55 423.03 614.09 C 415.79 605.94 407.86 598.46 400.92 590.08 C 390.56 580.35 383.25 567.48 372.14 558.88 C 370.96 554.64 367.87 552.01 364.44 549.58 C 362.24 542.61 351.67 538.19 352.66 530.67 C 359.59 526.24 357.04 538.65 362.95 537.22 C 370.21 540.33 374.67 533.43 379.00 528.94 C 390.51 517.80 401.60 506.24 413.04 495.05 C 418.15 490.50 416.80 483.00 415.06 477.22 Z" />
<path fill="#b4b4b4" opacity="1.00" d=" M 862.25 492.14 C 866.04 490.71 866.25 495.74 867.26 498.16 C 862.95 504.20 858.09 510.37 852.58 515.53 C 747.96 620.79 642.87 725.38 538.20 830.19 C 525.65 843.17 512.82 856.53 498.20 867.33 C 495.78 866.24 490.72 866.05 492.13 862.25 C 494.77 858.46 501.00 860.46 502.94 855.97 C 620.83 738.85 738.22 620.22 856.03 503.10 C 860.91 501.50 858.20 494.71 862.25 492.14 Z" />
<path fill="#b4b4b4" opacity="1.00" d=" M 297.05 604.95 C 291.97 604.93 291.39 597.36 295.98 595.95 C 302.01 597.02 300.08 605.53 307.00 605.04 C 324.64 623.30 345.22 638.83 362.07 658.04 C 350.47 650.93 341.92 639.37 331.92 631.04 C 325.95 629.87 322.45 633.35 321.79 638.82 C 316.24 640.31 318.60 648.56 312.37 648.50 C 308.76 648.86 308.82 653.06 307.57 655.63 C 304.37 657.10 299.85 657.32 299.73 661.84 C 299.34 666.97 291.17 664.50 291.26 670.16 C 291.35 675.84 282.73 672.84 282.63 678.64 C 282.85 684.25 275.55 681.92 274.27 686.16 C 274.24 691.13 269.77 691.56 266.25 693.27 C 265.86 699.09 261.08 702.29 255.46 701.73 C 254.13 699.64 253.24 697.09 251.02 695.76 C 246.61 697.50 250.81 702.22 252.17 704.80 C 263.81 719.97 277.82 734.18 285.01 752.12 C 287.72 754.96 293.08 760.69 287.02 763.10 C 282.71 761.04 279.56 757.22 275.92 754.28 C 277.62 753.90 280.93 754.33 281.04 751.92 C 281.81 746.58 274.58 745.52 274.46 740.39 C 262.05 719.91 244.99 702.52 230.33 683.69 C 227.19 679.47 229.85 675.07 234.23 673.23 C 255.77 653.14 275.87 631.54 297.10 611.11 C 298.25 609.51 300.57 604.86 297.05 604.95 Z" />
</g>
<g id="#dcdcdcff">
<path fill="#dcdcdc" opacity="1.00" d=" M 550.21 257.00 C 552.54 247.26 561.81 241.51 568.96 235.41 C 567.38 244.54 547.60 248.51 552.96 261.05 C 561.56 273.49 573.70 283.06 582.93 295.06 C 588.44 302.16 596.64 307.66 599.62 316.42 C 602.30 317.83 606.51 318.78 604.89 322.76 C 601.65 326.56 597.25 321.94 597.59 318.06 C 592.74 318.04 588.65 320.80 587.62 325.64 C 581.03 327.57 579.95 335.36 573.41 337.48 C 571.44 344.81 561.16 344.97 562.06 353.59 C 565.94 353.25 570.55 357.65 566.76 360.89 C 562.26 362.64 561.40 357.53 560.54 354.40 C 557.29 354.15 554.29 353.38 552.13 350.88 C 538.73 338.96 524.94 327.42 512.26 314.73 C 508.19 310.06 500.86 305.40 495.17 310.17 C 475.95 330.48 455.69 350.10 435.85 369.90 C 430.47 372.73 428.96 380.48 432.84 385.17 C 447.13 401.24 462.36 416.51 475.67 433.42 C 478.61 439.49 471.70 439.66 468.30 441.32 C 465.69 444.53 463.57 448.20 459.38 449.46 C 457.25 453.92 453.99 457.20 449.59 459.44 C 448.45 463.75 444.49 465.64 441.31 468.29 C 439.68 471.71 439.49 478.57 433.43 475.69 C 417.44 461.66 401.13 447.92 385.92 433.07 C 381.01 428.05 373.02 430.11 369.79 435.79 C 352.03 454.28 333.47 472.14 315.49 490.46 C 310.49 493.34 308.21 499.35 311.41 504.60 C 334.01 530.06 357.64 554.61 378.76 581.30 C 380.60 586.17 372.62 586.22 372.19 581.86 C 370.16 575.65 361.40 581.33 361.58 586.63 C 357.86 589.06 353.45 590.49 352.60 595.64 C 345.14 598.95 340.80 606.51 337.82 613.91 C 335.02 614.31 332.08 613.84 329.32 613.82 C 326.40 611.58 325.51 607.31 321.71 606.22 C 305.76 592.94 290.30 578.75 275.90 563.77 C 284.65 565.60 289.33 576.59 297.45 580.68 C 300.28 584.93 303.70 589.31 309.61 588.39 C 306.95 593.51 314.39 597.99 315.92 592.96 C 308.22 577.73 328.17 568.66 335.79 558.87 C 336.32 553.66 344.77 550.12 346.09 556.93 C 347.03 561.90 355.67 558.71 352.39 554.64 C 340.76 540.31 328.97 526.02 316.29 512.60 C 308.75 507.97 305.12 494.80 313.47 489.41 C 332.72 470.67 351.72 451.68 370.36 432.33 C 374.72 427.98 382.56 427.45 386.96 432.07 C 396.93 440.79 406.67 449.84 417.08 458.02 C 418.92 458.33 420.50 456.53 420.83 454.89 C 420.20 440.42 437.36 436.97 442.12 425.08 C 445.75 418.98 457.06 424.16 458.04 417.08 C 450.32 406.61 441.27 397.08 432.59 387.38 C 427.38 382.09 428.17 372.42 434.56 368.51 C 445.78 357.37 457.11 346.46 468.05 335.08 C 478.84 326.69 486.04 313.58 498.13 307.08 C 512.58 305.72 519.45 322.12 530.78 328.11 C 535.16 329.22 535.46 336.65 540.75 334.90 C 545.00 331.35 537.70 327.35 539.25 323.37 C 549.36 315.55 558.17 306.06 566.06 296.07 C 569.93 288.65 574.63 304.25 578.82 296.73 C 580.67 292.35 575.21 291.42 573.18 288.86 C 567.38 276.81 552.77 270.94 550.21 257.00 Z" />
</g>
<g id="#f7f7f7ff">
<path fill="#f7f7f7" opacity="1.00" d=" M 540.29 249.27 C 548.48 247.50 545.92 257.80 544.75 262.72 C 534.03 271.54 524.97 281.69 515.33 291.33 C 510.90 292.79 509.74 297.70 506.76 300.74 C 502.35 301.29 496.77 303.72 493.08 300.75 C 489.30 292.92 499.97 293.81 501.16 288.11 C 501.52 282.61 509.45 284.47 510.16 279.11 C 510.71 274.20 517.79 275.73 518.85 270.91 C 519.03 265.28 526.83 267.03 527.55 261.65 C 527.77 257.19 533.26 258.26 535.17 255.23 C 536.19 252.72 537.41 250.05 540.29 249.27 Z" />
<path fill="#f7f7f7" opacity="1.00" d=" M 416.26 371.13 C 427.21 367.15 425.91 380.66 422.23 386.24 C 417.99 388.38 415.32 391.92 412.62 395.59 C 408.46 397.41 406.27 401.21 403.62 404.59 C 399.79 406.41 397.33 409.65 395.12 413.12 C 391.22 415.54 388.04 418.64 385.78 422.75 C 380.54 423.93 368.40 427.68 371.01 418.06 C 371.73 413.15 379.28 414.87 379.44 409.35 C 379.97 404.27 387.92 406.26 388.00 401.00 C 388.00 397.33 392.19 396.98 394.71 395.70 C 397.35 393.56 396.59 388.00 401.00 388.00 C 406.52 387.81 404.56 379.41 410.11 379.15 C 414.77 378.70 413.10 373.20 416.26 371.13 Z" />
<path fill="#f7f7f7" opacity="1.00" d=" M 295.33 492.27 C 297.75 492.21 302.60 492.07 305.03 492.00 C 304.69 497.33 303.82 502.78 301.73 507.72 C 288.32 518.44 276.87 531.66 265.06 544.06 C 260.08 545.16 246.49 548.46 250.12 538.20 C 253.52 535.96 257.25 534.39 257.69 529.69 C 258.79 526.02 265.39 527.88 265.40 523.34 C 265.46 518.68 270.37 518.28 273.65 516.72 C 274.09 513.48 275.17 509.46 279.11 509.23 C 284.51 509.43 281.92 500.50 287.65 500.60 C 293.33 500.90 290.27 493.02 295.33 492.27 Z" />
</g>
<g id="#afafafff">
<path fill="#afafaf" opacity="1.00" d=" M 701.93 255.27 C 698.93 254.58 694.24 250.84 698.99 249.01 C 717.31 259.55 731.38 277.12 751.54 284.62 C 754.81 286.42 757.08 291.01 761.70 288.89 C 764.49 287.30 761.64 284.07 761.05 281.92 C 763.08 288.13 773.05 290.42 771.88 297.75 C 764.97 304.07 763.04 290.16 755.97 293.03 C 746.98 293.80 741.64 284.53 733.23 284.09 C 729.75 286.62 735.96 290.30 733.42 293.38 C 713.75 311.75 694.81 331.49 675.66 350.63 C 673.48 353.52 669.66 354.24 666.30 354.69 C 661.80 354.21 663.41 345.86 658.34 347.36 C 655.65 348.21 652.06 344.20 650.80 348.01 C 651.98 351.56 657.35 350.14 658.39 353.46 C 657.81 358.64 662.12 359.80 665.63 361.41 C 666.69 365.99 669.13 369.59 673.61 371.38 C 674.82 375.62 677.68 378.58 681.63 380.41 C 690.03 393.05 702.97 401.28 710.91 414.18 C 717.92 420.30 717.59 429.52 716.97 437.98 C 716.39 465.12 678.51 485.97 657.20 465.88 C 647.69 459.11 640.77 449.50 631.54 442.44 C 625.45 438.44 622.48 431.01 615.27 428.75 C 613.85 425.82 612.28 422.75 608.64 422.38 C 603.01 422.05 605.56 411.78 597.97 414.99 C 592.93 415.61 597.16 406.14 592.08 407.02 C 588.22 407.59 591.20 411.89 591.88 414.06 C 592.44 418.33 598.66 417.66 598.88 422.07 C 598.49 425.32 597.76 428.91 595.12 431.13 C 578.69 447.04 563.09 463.78 546.28 479.30 C 540.98 485.20 542.69 467.97 536.70 471.67 C 534.37 477.30 537.73 483.56 543.94 484.21 C 541.78 497.57 549.85 516.79 537.31 526.31 C 534.77 534.34 526.02 535.99 521.19 542.19 C 510.98 545.44 499.64 543.65 489.00 543.98 C 484.14 544.41 485.19 537.75 481.36 536.58 C 478.66 535.22 475.57 535.92 473.07 537.21 C 472.20 542.01 483.18 542.49 480.05 547.00 C 465.31 559.81 452.16 574.49 438.07 588.08 C 433.65 592.55 429.24 598.77 422.27 598.66 C 418.66 598.08 419.09 593.74 417.86 591.06 C 414.85 591.48 411.85 591.63 409.02 590.34 C 405.51 594.19 413.41 593.64 414.44 596.45 C 412.84 605.08 424.59 602.32 423.62 610.54 C 424.90 614.09 430.37 613.89 430.89 618.11 C 431.89 623.00 438.48 622.67 439.56 627.54 C 448.07 638.41 458.69 647.72 466.90 659.10 C 475.48 667.43 473.71 680.17 471.86 690.88 C 465.62 702.30 455.76 714.25 442.34 716.43 C 422.49 722.34 406.86 706.36 395.08 692.94 C 389.28 686.68 382.29 681.62 377.19 674.88 C 370.20 674.10 370.67 663.87 362.46 665.61 C 361.96 661.20 358.16 654.45 353.05 659.22 C 353.66 663.79 356.87 668.91 352.91 672.90 C 335.08 691.70 316.11 709.42 298.23 728.18 C 296.27 732.12 291.77 736.01 287.51 732.55 C 282.81 730.36 283.88 737.10 285.78 739.27 C 290.22 744.54 293.30 750.95 292.95 758.02 C 292.41 763.66 302.79 764.83 298.35 771.32 C 292.26 774.40 288.86 763.48 282.85 763.05 C 267.75 750.93 254.34 736.95 240.21 723.80 C 235.15 716.60 225.88 712.79 221.95 704.85 C 231.39 712.36 239.89 720.93 248.74 729.10 C 255.97 739.09 267.68 745.08 275.92 754.28 C 279.56 757.22 282.71 761.04 287.02 763.10 C 293.08 760.69 287.72 754.96 285.01 752.12 C 277.82 734.18 263.81 719.97 252.17 704.80 C 250.81 702.22 246.61 697.50 251.02 695.76 C 253.24 697.09 254.13 699.64 255.46 701.73 C 261.08 702.29 265.86 699.09 266.25 693.27 C 269.77 691.56 274.24 691.13 274.27 686.16 C 275.55 681.92 282.85 684.25 282.63 678.64 C 282.73 672.84 291.35 675.84 291.26 670.16 C 291.17 664.50 299.34 666.97 299.73 661.84 C 299.85 657.32 304.37 657.10 307.57 655.63 C 308.82 653.06 308.76 648.86 312.37 648.50 C 318.60 648.56 316.24 640.31 321.79 638.82 C 322.45 633.35 325.95 629.87 331.92 631.04 C 341.92 639.37 350.47 650.93 362.07 658.04 C 382.67 676.00 399.65 698.36 422.81 713.13 C 449.72 724.38 480.68 692.84 468.79 666.20 C 457.17 646.04 438.40 631.27 423.03 614.09 C 419.55 605.55 411.73 599.75 405.79 593.29 C 404.80 587.88 397.80 587.55 396.55 582.38 C 395.54 577.91 389.51 577.79 388.86 573.12 C 388.36 569.10 383.18 568.32 382.78 564.46 C 388.77 565.35 394.87 564.18 400.20 561.35 C 405.74 561.23 402.95 552.96 408.38 552.51 C 411.44 552.26 413.27 550.45 413.50 547.37 C 413.88 542.41 421.54 544.86 421.72 539.83 C 421.57 533.88 430.06 536.80 430.38 531.36 C 430.66 527.35 434.26 526.22 437.59 525.50 C 441.33 518.99 445.66 510.82 441.91 503.02 C 446.26 501.70 447.46 505.21 447.74 509.28 C 456.93 506.89 455.11 518.04 462.32 518.74 C 469.38 523.64 474.08 533.22 483.17 534.92 C 491.87 544.15 504.62 543.24 516.14 541.15 C 526.76 536.03 535.25 527.27 540.97 517.01 C 545.91 501.00 540.69 483.20 527.00 473.15 C 526.80 469.51 525.82 465.87 521.69 465.26 C 517.39 463.95 519.45 457.01 514.38 456.55 C 510.25 455.74 510.21 451.02 509.23 447.79 C 506.91 447.08 500.54 445.27 504.20 442.30 C 508.52 441.84 513.21 443.15 517.36 442.28 C 519.69 438.69 526.08 440.16 526.26 435.16 C 526.25 429.21 535.30 431.99 535.25 426.16 C 535.17 420.49 543.59 423.24 543.73 417.84 C 543.53 411.81 552.33 414.87 552.26 409.16 C 552.49 405.19 556.46 404.35 559.59 403.49 C 563.04 397.45 567.41 390.22 564.03 382.97 C 563.40 380.04 568.20 379.17 568.40 382.45 C 566.70 390.58 576.37 385.66 578.25 390.69 C 579.68 397.42 588.79 396.14 590.48 403.39 C 596.70 405.09 598.91 412.22 605.01 414.11 C 618.57 426.85 632.07 439.60 645.23 452.77 C 654.60 460.85 664.19 473.05 677.99 471.10 C 687.76 473.39 695.23 466.59 702.78 461.78 C 717.27 450.36 720.03 427.12 707.95 413.05 C 695.65 397.60 680.67 384.39 667.04 370.08 C 663.59 360.53 652.24 356.75 648.37 347.64 C 648.08 342.78 640.80 344.36 640.62 339.36 C 640.52 333.42 631.63 335.53 631.94 329.07 C 632.40 323.80 626.12 325.82 624.77 321.99 C 628.14 317.96 634.85 321.72 639.36 320.28 C 641.69 316.69 648.08 318.16 648.26 313.16 C 648.41 309.12 652.67 308.73 655.63 307.57 C 657.10 304.37 657.32 299.85 661.84 299.73 C 666.86 299.53 664.42 291.88 669.37 291.50 C 675.87 291.88 672.82 282.38 679.16 282.26 C 684.48 282.58 681.89 275.26 686.16 274.27 C 691.13 274.24 691.56 269.77 693.27 266.25 C 699.31 265.88 702.07 260.91 701.93 255.27 Z" />
</g>
<g id="#aaaaaaff">
<path fill="#aaaaaa" opacity="1.00" d=" M 737.15 255.52 C 739.12 255.41 740.64 256.76 741.97 258.04 C 772.28 291.59 803.69 324.29 836.48 355.54 C 847.91 368.63 863.95 379.19 870.15 395.87 C 873.39 398.53 875.58 402.25 876.54 406.34 C 877.36 415.97 883.85 423.67 884.74 433.28 C 885.07 441.11 885.06 448.96 884.87 456.81 C 882.18 472.76 876.13 488.06 867.74 501.76 C 851.88 522.92 831.72 539.73 813.75 558.77 C 718.78 652.95 624.95 748.38 530.04 842.06 C 518.36 855.16 504.62 866.54 489.59 875.50 C 478.59 877.42 468.87 883.52 457.73 884.74 C 450.56 885.02 443.38 885.04 436.22 884.86 C 430.99 883.57 425.45 883.23 420.82 880.27 C 413.73 876.19 403.93 878.44 398.33 871.68 C 396.27 867.94 391.71 868.29 388.35 866.55 C 363.97 847.10 344.42 822.54 321.75 801.25 C 309.53 787.77 295.12 776.30 282.85 763.05 C 288.86 763.48 292.26 774.40 298.35 771.32 C 302.79 764.83 292.41 763.66 292.95 758.02 C 293.30 750.95 290.22 744.54 285.78 739.27 C 283.88 737.10 282.81 730.36 287.51 732.55 C 291.77 736.01 296.27 732.12 298.23 728.18 C 316.11 709.42 335.08 691.70 352.91 672.90 C 356.87 668.91 353.66 663.79 353.05 659.22 C 358.16 654.45 361.96 661.20 362.46 665.61 C 370.67 663.87 370.20 674.10 377.19 674.88 C 382.29 681.62 389.28 686.68 395.08 692.94 C 392.60 692.05 388.24 693.38 387.19 690.88 C 387.60 686.79 382.21 681.92 380.05 686.98 C 383.87 691.71 383.90 698.71 378.89 702.89 C 359.83 721.82 340.88 740.73 322.12 760.07 C 316.25 764.07 309.90 770.41 309.98 777.85 C 316.29 777.43 317.93 782.41 320.46 786.47 C 327.51 787.03 324.71 796.78 331.30 797.76 C 335.29 798.72 334.70 804.43 338.89 805.12 C 342.84 805.78 343.49 809.85 345.27 812.72 C 351.62 815.60 353.84 822.76 360.06 825.89 C 362.68 831.44 370.29 832.04 371.38 838.64 C 377.13 840.28 379.29 846.22 384.28 848.81 C 407.07 870.99 444.37 879.99 474.08 867.02 C 475.66 866.32 477.23 865.59 478.84 864.96 C 491.92 861.66 501.53 850.72 511.99 843.58 C 508.91 849.35 502.56 852.50 498.29 857.21 C 480.27 867.57 460.64 877.58 439.00 875.09 C 425.97 877.84 415.90 867.57 403.37 866.55 C 398.53 864.15 393.25 855.09 387.12 860.25 C 384.77 870.08 399.97 861.73 400.77 869.31 C 403.47 878.67 414.95 872.72 421.71 876.37 C 433.77 885.37 450.46 884.67 464.10 880.03 C 471.04 873.65 481.68 877.89 489.25 873.29 C 491.29 869.81 493.64 867.07 498.20 867.33 C 512.82 856.53 525.65 843.17 538.20 830.19 C 642.87 725.38 747.96 620.79 852.58 515.53 C 858.09 510.37 862.95 504.20 867.26 498.16 C 866.36 493.07 870.07 490.88 873.57 488.58 C 876.68 482.87 874.95 476.00 877.11 470.05 C 884.40 456.63 885.42 439.55 879.55 425.46 C 870.36 420.02 880.85 403.15 868.86 400.27 C 862.38 399.52 869.89 384.69 860.25 387.11 C 855.22 393.29 863.45 397.80 866.47 402.46 C 867.85 409.72 869.26 417.27 873.37 423.57 C 876.11 436.67 875.55 450.46 873.53 463.64 C 868.89 472.80 867.26 483.43 860.41 491.38 C 857.63 494.60 858.15 499.95 853.81 501.83 C 802.95 554.81 749.86 605.94 698.39 658.39 C 677.81 678.53 657.71 699.35 636.95 719.10 C 639.48 712.71 645.99 710.04 649.63 704.62 C 705.01 649.66 760.06 594.44 815.18 539.15 C 829.17 525.17 843.72 511.58 856.18 496.14 C 876.68 467.51 878.74 426.50 858.76 397.22 C 853.78 389.68 848.37 382.27 841.43 376.63 C 840.35 372.72 837.69 370.19 833.80 369.14 C 826.52 358.70 816.49 349.16 806.53 341.57 C 805.93 335.42 798.43 335.42 797.14 329.88 C 796.00 324.81 788.03 327.02 787.25 321.69 C 785.41 316.92 777.15 318.61 778.40 311.47 C 777.47 307.53 772.91 309.18 770.08 310.06 C 763.52 312.34 760.44 319.13 755.35 323.38 C 736.90 341.25 719.02 359.70 700.74 377.74 C 696.49 381.21 687.39 383.69 687.19 375.80 C 684.36 377.59 679.02 369.26 678.10 374.08 C 677.27 378.55 684.82 374.07 685.46 378.42 C 684.02 386.45 694.65 385.90 694.29 393.71 C 700.83 395.99 702.57 403.15 708.54 406.45 C 709.73 408.88 710.27 411.56 710.91 414.18 C 702.97 401.28 690.03 393.05 681.63 380.41 C 677.68 378.58 674.82 375.62 673.61 371.38 C 669.13 369.59 666.69 365.99 665.63 361.41 C 662.12 359.80 657.81 358.64 658.39 353.46 C 657.35 350.14 651.98 351.56 650.80 348.01 C 652.06 344.20 655.65 348.21 658.34 347.36 C 663.41 345.86 661.80 354.21 666.30 354.69 C 669.66 354.24 673.48 353.52 675.66 350.63 C 694.81 331.49 713.75 311.75 733.42 293.38 C 735.96 290.30 729.75 286.62 733.23 284.09 C 741.64 284.53 746.98 293.80 755.97 293.03 C 763.04 290.16 764.97 304.07 771.88 297.75 C 773.05 290.42 763.08 288.13 761.05 281.92 C 756.05 276.60 752.13 269.98 746.02 265.85 C 743.37 262.12 739.80 259.20 737.15 255.52 Z" />
<path fill="#aaaaaa" opacity="1.00" d=" M 591.88 414.06 C 591.20 411.89 588.22 407.59 592.08 407.02 C 597.16 406.14 592.93 415.61 597.97 414.99 C 605.56 411.78 603.01 422.05 608.64 422.38 C 612.28 422.75 613.85 425.82 615.27 428.75 C 622.48 431.01 625.45 438.44 631.54 442.44 C 640.77 449.50 647.69 459.11 657.20 465.88 C 649.66 466.60 649.16 457.27 642.45 456.43 C 639.96 454.14 639.94 448.97 635.62 448.51 C 632.33 448.31 630.76 445.93 629.92 443.03 C 629.46 439.21 622.04 440.81 624.49 444.59 C 627.22 448.95 624.69 454.14 621.28 457.29 C 598.08 480.14 575.39 503.53 552.02 526.21 C 548.96 525.28 550.46 522.13 550.64 519.84 C 551.48 511.02 551.13 502.09 549.69 493.35 C 549.14 491.02 546.03 491.97 546.07 494.08 C 544.72 505.41 542.72 517.98 548.71 528.27 C 549.85 531.97 544.60 533.54 542.12 535.18 C 542.15 532.31 543.36 528.32 540.02 526.76 C 535.67 528.49 536.89 533.81 540.14 536.09 C 537.81 543.20 528.29 532.00 527.01 540.03 C 527.15 545.04 535.94 540.34 534.21 544.22 C 509.27 569.43 483.80 594.51 458.78 619.79 C 456.06 622.95 452.16 625.07 448.03 625.64 C 445.10 625.27 438.82 620.60 442.19 628.58 C 450.60 629.75 447.13 641.26 456.44 642.36 C 457.54 649.03 465.91 650.08 466.77 657.14 C 466.80 657.63 466.87 658.61 466.90 659.10 C 458.69 647.72 448.07 638.41 439.56 627.54 C 438.48 622.67 431.89 623.00 430.89 618.11 C 430.37 613.89 424.90 614.09 423.62 610.54 C 424.59 602.32 412.84 605.08 414.44 596.45 C 413.41 593.64 405.51 594.19 409.02 590.34 C 411.85 591.63 414.85 591.48 417.86 591.06 C 419.09 593.74 418.66 598.08 422.27 598.66 C 429.24 598.77 433.65 592.55 438.07 588.08 C 452.16 574.49 465.31 559.81 480.05 547.00 C 483.18 542.49 472.20 542.01 473.07 537.21 C 475.57 535.92 478.66 535.22 481.36 536.58 C 485.19 537.75 484.14 544.41 489.00 543.98 C 499.64 543.65 510.98 545.44 521.19 542.19 C 526.02 535.99 534.77 534.34 537.31 526.31 C 549.85 516.79 541.78 497.57 543.94 484.21 C 537.73 483.56 534.37 477.30 536.70 471.67 C 542.69 467.97 540.98 485.20 546.28 479.30 C 563.09 463.78 578.69 447.04 595.12 431.13 C 597.76 428.91 598.49 425.32 598.88 422.07 C 598.66 417.66 592.44 418.33 591.88 414.06 Z" />
</g>
<g id="#757575ff">
<path fill="#757575" opacity="1.00" d=" M 757.52 268.14 C 781.79 291.27 805.57 316.43 830.02 339.96 C 846.63 358.81 869.35 373.99 879.25 397.77 C 888.05 409.57 887.97 424.93 888.03 439.00 C 887.80 451.33 888.86 463.89 886.00 476.02 C 878.16 502.10 858.29 521.67 838.96 539.97 C 745.01 634.09 651.03 728.03 556.98 821.98 C 534.93 842.12 516.79 868.16 488.89 880.84 C 481.80 885.93 473.04 886.81 464.59 887.43 C 442.59 887.16 417.25 892.35 397.76 879.24 C 376.02 869.90 361.46 850.18 344.76 834.24 C 302.78 792.01 260.31 750.43 218.35 708.58 C 212.55 702.35 205.72 696.87 202.26 688.85 C 201.02 681.43 194.47 676.39 193.06 668.99 C 190.69 649.78 192.60 630.29 192.01 610.98 C 191.34 602.82 196.12 595.74 199.94 588.98 C 205.79 570.62 222.59 558.84 235.10 545.09 C 239.57 542.87 240.94 535.19 246.28 535.19 C 238.78 544.99 228.92 552.63 220.93 561.99 C 209.45 571.58 204.16 585.45 197.10 598.06 C 190.81 619.25 192.81 641.83 194.54 663.57 C 200.20 690.25 221.39 708.52 239.86 727.01 C 283.71 771.18 328.69 814.33 372.00 859.01 C 387.18 871.60 404.94 884.50 425.25 884.87 C 428.89 884.90 432.57 884.96 436.22 884.86 C 443.38 885.04 450.56 885.02 457.73 884.74 C 476.43 887.22 493.64 876.26 508.47 866.42 C 545.34 832.69 579.35 796.00 615.20 761.22 C 685.81 690.14 756.87 619.54 827.54 548.51 C 845.05 529.97 866.78 514.07 877.27 490.13 C 882.76 480.09 886.76 468.36 884.87 456.81 C 885.06 448.96 885.07 441.11 884.74 433.28 C 884.96 430.01 885.07 426.70 885.25 423.46 C 886.27 410.62 877.54 400.29 872.81 389.11 C 853.29 362.71 827.76 341.51 805.21 317.82 C 790.07 304.28 777.26 288.25 761.83 275.05 C 761.59 274.83 761.10 274.39 760.85 274.16 C 759.62 272.24 757.47 270.61 757.52 268.14 Z" />
</g>
<g id="#3030307f">
<path fill="#303030" opacity="0.50" d=" M 46.26 282.26 C 45.46 277.56 45.71 273.82 47.01 271.02 C 46.94 274.77 46.70 278.52 46.26 282.26 Z" />
<path fill="#303030" opacity="0.50" d=" M 271.02 1032.99 C 274.77 1033.03 278.52 1033.28 282.26 1033.74 C 277.56 1034.51 273.82 1034.27 271.02 1032.99 Z" />
</g>
<g id="#868686ff">
<path fill="#868686" opacity="1.00" d=" M 761.83 275.05 C 777.26 288.25 790.07 304.28 805.21 317.82 C 827.76 341.51 853.29 362.71 872.81 389.11 C 877.54 400.29 886.27 410.62 885.25 423.46 C 881.97 414.11 879.00 404.51 874.12 395.85 C 865.93 379.59 851.49 367.88 839.40 354.63 C 816.97 332.72 794.48 310.87 772.87 288.14 C 769.49 283.47 763.69 280.76 761.83 275.05 Z" />
<path fill="#868686" opacity="1.00" d=" M 468.78 311.78 C 474.37 307.76 477.92 301.22 484.20 298.15 L 484.11 299.12 C 461.36 322.39 438.23 345.30 415.00 368.09 L 414.07 368.19 C 430.39 348.51 451.06 330.95 468.78 311.78 Z" />
</g>
<g id="#b1b1b1ff">
<path fill="#b1b1b1" opacity="1.00" d=" M 484.11 299.12 C 485.73 297.67 487.39 296.26 489.06 294.88 C 479.70 308.77 465.41 318.74 454.51 331.49 C 440.88 343.12 430.32 358.74 415.00 368.09 C 438.23 345.30 461.36 322.39 484.11 299.12 Z" />
</g>
<g id="#a6a6a6ff">
<path fill="#a6a6a6" opacity="1.00" d=" M 770.08 310.06 C 772.91 309.18 777.47 307.53 778.40 311.47 C 777.15 318.61 785.41 316.92 787.25 321.69 C 788.03 327.02 796.00 324.81 797.14 329.88 C 798.43 335.42 805.93 335.42 806.53 341.57 C 816.49 349.16 826.52 358.70 833.80 369.14 C 837.69 370.19 840.35 372.72 841.43 376.63 C 848.37 382.27 853.78 389.68 858.76 397.22 C 878.74 426.50 876.68 467.51 856.18 496.14 C 843.72 511.58 829.17 525.17 815.18 539.15 C 760.06 594.44 705.01 649.66 649.63 704.62 C 645.99 710.04 639.48 712.71 636.95 719.10 C 595.13 760.42 553.95 802.43 511.99 843.58 C 501.53 850.72 491.92 861.66 478.84 864.96 C 479.60 864.29 480.36 863.63 481.12 862.98 C 504.15 851.44 520.20 830.92 538.46 813.50 C 638.62 713.32 738.86 613.20 838.95 512.95 C 850.62 501.81 860.49 488.34 866.11 473.11 C 872.74 457.44 872.58 439.00 868.35 422.65 C 863.51 399.11 844.20 383.10 828.41 366.60 C 818.51 354.59 804.60 347.18 793.62 336.33 C 789.40 333.43 781.81 333.48 780.45 339.37 C 779.71 342.22 778.16 344.56 775.14 345.21 C 770.99 346.12 772.16 352.20 768.12 353.13 C 762.19 354.14 763.22 362.09 757.20 363.25 C 753.64 365.82 752.91 371.10 747.80 371.88 C 744.94 374.45 744.91 379.73 740.13 380.21 C 736.14 381.24 737.33 387.23 733.02 388.04 C 727.67 388.83 728.59 395.50 724.01 397.02 C 721.32 397.97 720.26 400.63 718.75 402.78 C 715.71 401.92 708.94 398.96 710.33 404.45 C 708.86 410.69 713.87 413.26 717.74 416.31 C 718.18 428.49 720.97 442.21 715.60 453.58 C 710.21 456.75 709.18 464.09 702.84 465.85 C 698.55 467.31 697.40 473.21 692.60 473.57 C 683.03 473.62 673.44 475.66 663.92 474.15 C 658.73 474.23 657.98 466.75 652.93 466.11 C 650.54 466.35 648.11 466.90 646.02 468.12 C 646.45 470.30 648.05 472.32 647.76 474.60 C 640.85 476.51 640.33 484.35 633.47 486.41 C 631.97 490.35 629.16 492.88 625.21 494.24 C 623.40 498.52 620.98 501.98 616.23 503.22 C 614.62 510.04 606.55 510.94 604.52 517.52 C 599.75 518.73 597.56 522.51 595.64 526.62 C 590.94 527.55 588.92 531.17 587.12 535.09 C 579.64 536.49 579.78 545.48 572.47 547.41 C 571.41 553.12 564.96 553.19 562.76 557.70 C 562.20 563.08 554.87 561.82 553.86 566.88 C 551.77 571.94 544.94 572.72 543.52 578.52 C 538.75 579.72 536.56 583.51 534.64 587.62 C 527.27 588.76 527.80 597.91 520.27 599.24 C 518.69 606.31 510.06 606.14 508.55 613.53 C 501.42 615.09 501.60 623.79 494.24 625.21 C 492.63 632.03 484.55 632.94 482.53 639.53 C 478.42 640.82 475.59 643.50 474.65 647.79 C 472.47 647.67 470.34 647.09 468.17 647.04 C 465.86 649.92 466.15 653.73 466.77 657.14 C 465.91 650.08 457.54 649.03 456.44 642.36 C 447.13 641.26 450.60 629.75 442.19 628.58 C 438.82 620.60 445.10 625.27 448.03 625.64 C 452.16 625.07 456.06 622.95 458.78 619.79 C 483.80 594.51 509.27 569.43 534.21 544.22 C 535.94 540.34 527.15 545.04 527.01 540.03 C 528.29 532.00 537.81 543.20 540.14 536.09 C 536.89 533.81 535.67 528.49 540.02 526.76 C 543.36 528.32 542.15 532.31 542.12 535.18 C 544.60 533.54 549.85 531.97 548.71 528.27 C 542.72 517.98 544.72 505.41 546.07 494.08 C 546.03 491.97 549.14 491.02 549.69 493.35 C 551.13 502.09 551.48 511.02 550.64 519.84 C 550.46 522.13 548.96 525.28 552.02 526.21 C 575.39 503.53 598.08 480.14 621.28 457.29 C 624.69 454.14 627.22 448.95 624.49 444.59 C 622.04 440.81 629.46 439.21 629.92 443.03 C 630.76 445.93 632.33 448.31 635.62 448.51 C 639.94 448.97 639.96 454.14 642.45 456.43 C 649.16 457.27 649.66 466.60 657.20 465.88 C 678.51 485.97 716.39 465.12 716.97 437.98 C 717.59 429.52 717.92 420.30 710.91 414.18 C 710.27 411.56 709.73 408.88 708.54 406.45 C 702.57 403.15 700.83 395.99 694.29 393.71 C 694.65 385.90 684.02 386.45 685.46 378.42 C 684.82 374.07 677.27 378.55 678.10 374.08 C 679.02 369.26 684.36 377.59 687.19 375.80 C 687.39 383.69 696.49 381.21 700.74 377.74 C 719.02 359.70 736.90 341.25 755.35 323.38 C 760.44 319.13 763.52 312.34 770.08 310.06 Z" />
<path fill="#a6a6a6" opacity="1.00" d=" M 466.77 657.14 C 471.04 659.12 476.30 661.93 474.04 667.97 C 472.83 679.30 478.38 694.28 466.76 701.69 C 465.83 706.05 463.60 709.19 459.01 710.03 C 453.60 712.65 450.19 719.66 442.99 717.93 C 434.12 715.76 418.96 723.51 414.13 712.83 C 411.53 709.32 406.24 709.66 403.03 712.17 C 402.61 714.30 404.77 717.59 403.07 718.97 C 397.45 719.66 397.54 727.10 392.14 728.20 C 387.73 729.51 388.89 736.30 383.89 736.88 C 379.16 737.50 380.57 744.17 376.12 745.13 C 369.89 746.77 370.48 755.22 363.47 756.41 C 362.41 762.12 355.96 762.19 353.76 766.70 C 353.21 772.09 345.84 770.80 344.87 775.89 C 343.87 781.23 335.72 779.37 334.76 784.86 C 332.51 793.44 342.34 798.46 346.27 804.71 C 359.40 822.05 374.95 837.40 391.00 851.99 C 413.46 871.55 446.16 875.54 474.08 867.02 C 444.37 879.99 407.07 870.99 384.28 848.81 C 379.29 846.22 377.13 840.28 371.38 838.64 C 370.29 832.04 362.68 831.44 360.06 825.89 C 353.84 822.76 351.62 815.60 345.27 812.72 C 343.49 809.85 342.84 805.78 338.89 805.12 C 334.70 804.43 335.29 798.72 331.30 797.76 C 324.71 796.78 327.51 787.03 320.46 786.47 C 317.93 782.41 316.29 777.43 309.98 777.85 C 309.90 770.41 316.25 764.07 322.12 760.07 C 340.88 740.73 359.83 721.82 378.89 702.89 C 383.90 698.71 383.87 691.71 380.05 686.98 C 382.21 681.92 387.60 686.79 387.19 690.88 C 388.24 693.38 392.60 692.05 395.08 692.94 C 406.86 706.36 422.49 722.34 442.34 716.43 C 455.76 714.25 465.62 702.30 471.86 690.88 C 473.71 680.17 475.48 667.43 466.90 659.10 C 466.87 658.61 466.80 657.63 466.77 657.14 Z" />
</g>
<g id="#464646b9">
<path fill="#464646" opacity="0.73" d=" M 45.05 311.02 L 46.00 310.98 C 46.05 319.41 46.26 327.86 45.30 336.26 C 44.95 327.85 44.79 319.43 45.05 311.02 Z" />
<path fill="#464646" opacity="0.73" d=" M 45.40 743.68 C 46.89 752.01 45.67 760.56 46.00 768.99 L 45.03 769.01 C 45.21 760.57 44.34 752.07 45.40 743.68 Z" />
<path fill="#464646" opacity="0.73" d=" M 310.98 1034.00 C 319.41 1033.95 327.86 1033.72 336.26 1034.70 C 327.85 1035.03 319.43 1035.21 311.02 1034.95 L 310.98 1034.00 Z" />
</g>
<g id="#a1a1a1ff">
<path fill="#a1a1a1" opacity="1.00" d=" M 780.45 339.37 C 781.81 333.48 789.40 333.43 793.62 336.33 C 804.60 347.18 818.51 354.59 828.41 366.60 C 844.20 383.10 863.51 399.11 868.35 422.65 C 872.58 439.00 872.74 457.44 866.11 473.11 C 874.98 443.60 869.00 408.58 845.43 387.51 C 838.61 380.66 832.01 373.52 823.94 368.11 C 821.44 362.66 815.24 361.49 810.86 358.09 C 803.44 359.29 807.93 373.41 797.67 370.63 C 801.42 382.39 784.43 374.77 787.64 385.68 C 782.75 387.18 777.53 388.31 778.28 395.29 C 767.27 392.26 774.15 408.87 762.67 405.63 C 765.87 416.48 750.43 410.25 752.48 420.56 C 751.15 423.52 744.55 421.03 744.56 425.43 C 745.72 431.65 740.37 430.52 736.66 431.62 C 737.88 437.00 733.58 441.44 728.21 439.97 C 724.11 433.72 726.66 425.31 723.40 418.62 C 723.35 416.63 720.72 416.46 720.28 418.33 C 718.86 431.04 720.19 444.00 717.76 456.59 C 707.76 454.16 713.18 470.41 702.84 465.85 C 709.18 464.09 710.21 456.75 715.60 453.58 C 720.97 442.21 718.18 428.49 717.74 416.31 C 713.87 413.26 708.86 410.69 710.33 404.45 C 708.94 398.96 715.71 401.92 718.75 402.78 C 720.26 400.63 721.32 397.97 724.01 397.02 C 728.59 395.50 727.67 388.83 733.02 388.04 C 737.33 387.23 736.14 381.24 740.13 380.21 C 744.91 379.73 744.94 374.45 747.80 371.88 C 752.91 371.10 753.64 365.82 757.20 363.25 C 763.22 362.09 762.19 354.14 768.12 353.13 C 772.16 352.20 770.99 346.12 775.14 345.21 C 778.16 344.56 779.71 342.22 780.45 339.37 Z" />
<path fill="#a1a1a1" opacity="1.00" d=" M 646.02 468.12 C 648.11 466.90 650.54 466.35 652.93 466.11 C 657.98 466.75 658.73 474.23 663.92 474.15 C 673.44 475.66 683.03 473.62 692.60 473.57 C 697.40 473.21 698.55 467.31 702.84 465.85 C 699.99 468.42 701.31 474.30 696.91 474.88 C 685.28 475.44 673.40 474.32 662.00 477.12 C 665.66 484.18 677.87 480.09 683.98 484.19 C 683.89 488.93 682.14 494.49 675.62 492.66 C 678.87 504.15 662.25 497.27 665.29 508.28 C 654.36 505.58 660.52 521.03 650.37 518.51 C 647.63 519.75 650.05 525.27 646.70 526.63 C 640.79 525.57 639.03 529.06 639.28 534.28 C 633.47 534.22 630.24 537.46 630.25 543.25 C 623.59 542.56 622.42 547.39 621.27 552.27 C 616.25 553.00 612.04 553.43 613.29 560.31 C 608.74 561.63 602.39 562.15 604.29 569.29 C 597.31 568.53 596.18 573.75 594.68 578.64 C 585.11 575.29 590.63 586.40 584.90 587.79 C 576.63 585.08 580.64 596.32 574.16 596.26 C 568.80 596.03 571.89 603.84 567.89 604.80 C 558.26 602.07 564.84 617.82 554.41 614.53 C 551.25 615.35 552.76 618.57 552.88 620.84 C 548.13 622.73 542.35 622.98 543.25 630.25 C 532.37 627.64 538.51 643.03 528.37 640.51 C 525.63 641.74 528.05 647.27 524.70 648.63 C 518.79 647.57 517.04 651.06 517.28 656.28 C 510.30 655.52 509.19 660.77 507.67 665.63 C 497.22 662.40 504.03 678.73 493.37 675.51 C 490.76 676.40 493.14 681.53 490.62 682.70 C 481.56 688.32 482.19 676.35 481.11 670.98 C 481.65 669.09 479.71 659.88 476.17 664.20 C 475.64 675.33 475.10 686.48 474.69 697.63 C 473.81 701.11 469.40 700.25 466.76 701.69 C 478.38 694.28 472.83 679.30 474.04 667.97 C 476.30 661.93 471.04 659.12 466.77 657.14 C 466.15 653.73 465.86 649.92 468.17 647.04 C 470.34 647.09 472.47 647.67 474.65 647.79 C 475.59 643.50 478.42 640.82 482.53 639.53 C 484.55 632.94 492.63 632.03 494.24 625.21 C 501.60 623.79 501.42 615.09 508.55 613.53 C 510.06 606.14 518.69 606.31 520.27 599.24 C 527.80 597.91 527.27 588.76 534.64 587.62 C 536.56 583.51 538.75 579.72 543.52 578.52 C 544.94 572.72 551.77 571.94 553.86 566.88 C 554.87 561.82 562.20 563.08 562.76 557.70 C 564.96 553.19 571.41 553.12 572.47 547.41 C 579.78 545.48 579.64 536.49 587.12 535.09 C 588.92 531.17 590.94 527.55 595.64 526.62 C 597.56 522.51 599.75 518.73 604.52 517.52 C 606.55 510.94 614.62 510.04 616.23 503.22 C 620.98 501.98 623.40 498.52 625.21 494.24 C 629.16 492.88 631.97 490.35 633.47 486.41 C 640.33 484.35 640.85 476.51 647.76 474.60 C 648.05 472.32 646.45 470.30 646.02 468.12 Z" />
<path fill="#a1a1a1" opacity="1.00" d=" M 403.03 712.17 C 406.24 709.66 411.53 709.32 414.13 712.83 C 418.96 723.51 434.12 715.76 442.99 717.93 C 450.19 719.66 453.60 712.65 459.01 710.03 C 456.73 712.14 456.26 715.30 454.69 717.82 C 443.00 720.68 430.37 717.33 418.99 721.18 C 421.01 727.25 431.25 724.41 436.35 726.64 C 441.69 726.33 441.67 735.00 436.89 735.79 C 428.63 733.09 432.63 744.32 426.16 744.26 C 421.28 744.14 423.29 750.66 420.56 752.47 C 410.44 750.29 416.44 765.13 406.41 762.54 C 403.25 763.34 404.76 766.58 404.88 768.84 C 400.49 771.00 393.23 770.53 395.29 778.29 C 388.31 777.53 387.18 782.74 385.68 787.64 C 374.77 784.43 382.39 801.42 370.63 797.67 C 373.02 807.51 361.35 803.21 358.96 810.05 C 359.97 819.12 368.29 823.25 372.90 830.14 C 386.89 846.80 403.18 862.89 425.26 867.57 C 443.86 872.90 463.34 869.14 481.12 862.98 C 480.36 863.63 479.60 864.29 478.84 864.96 C 477.23 865.59 475.66 866.32 474.08 867.02 C 446.16 875.54 413.46 871.55 391.00 851.99 C 374.95 837.40 359.40 822.05 346.27 804.71 C 342.34 798.46 332.51 793.44 334.76 784.86 C 335.72 779.37 343.87 781.23 344.87 775.89 C 345.84 770.80 353.21 772.09 353.76 766.70 C 355.96 762.19 362.41 762.12 363.47 756.41 C 370.48 755.22 369.89 746.77 376.12 745.13 C 380.57 744.17 379.16 737.50 383.89 736.88 C 388.89 736.30 387.73 729.51 392.14 728.20 C 397.54 727.10 397.45 719.66 403.07 718.97 C 404.77 717.59 402.61 714.30 403.03 712.17 Z" />
</g>
<g id="#9e9e9eff">
<path fill="#9e9e9e" opacity="1.00" d=" M 797.67 370.63 C 807.93 373.41 803.44 359.29 810.86 358.09 C 815.24 361.49 821.44 362.66 823.94 368.11 C 832.01 373.52 838.61 380.66 845.43 387.51 C 869.00 408.58 874.98 443.60 866.11 473.11 C 860.49 488.34 850.62 501.81 838.95 512.95 C 738.86 613.20 638.62 713.32 538.46 813.50 C 520.20 830.92 504.15 851.44 481.12 862.98 C 463.34 869.14 443.86 872.90 425.26 867.57 C 403.18 862.89 386.89 846.80 372.90 830.14 C 368.29 823.25 359.97 819.12 358.96 810.05 C 361.35 803.21 373.02 807.51 370.63 797.67 C 382.39 801.42 374.77 784.43 385.68 787.64 C 387.18 782.74 388.31 777.53 395.29 778.29 C 393.23 770.53 400.49 771.00 404.88 768.84 C 404.76 766.58 403.25 763.34 406.41 762.54 C 416.44 765.13 410.44 750.29 420.56 752.47 C 423.29 750.66 421.28 744.14 426.16 744.26 C 432.63 744.32 428.63 733.09 436.89 735.79 C 441.67 735.00 441.69 726.33 436.35 726.64 C 431.25 724.41 421.01 727.25 418.99 721.18 C 430.37 717.33 443.00 720.68 454.69 717.82 C 456.26 715.30 456.73 712.14 459.01 710.03 C 463.60 709.19 465.83 706.05 466.76 701.69 C 469.40 700.25 473.81 701.11 474.69 697.63 C 475.10 686.48 475.64 675.33 476.17 664.20 C 479.71 659.88 481.65 669.09 481.11 670.98 C 482.19 676.35 481.56 688.32 490.62 682.70 C 493.14 681.53 490.76 676.40 493.37 675.51 C 504.03 678.73 497.22 662.40 507.67 665.63 C 509.19 660.77 510.30 655.52 517.28 656.28 C 517.04 651.06 518.79 647.57 524.70 648.63 C 528.05 647.27 525.63 641.74 528.37 640.51 C 538.51 643.03 532.37 627.64 543.25 630.25 C 542.35 622.98 548.13 622.73 552.88 620.84 C 552.76 618.57 551.25 615.35 554.41 614.53 C 564.84 617.82 558.26 602.07 567.89 604.80 C 571.89 603.84 568.80 596.03 574.16 596.26 C 580.64 596.32 576.63 585.08 584.90 587.79 C 590.63 586.40 585.11 575.29 594.68 578.64 C 596.18 573.75 597.31 568.53 604.29 569.29 C 602.39 562.15 608.74 561.63 613.29 560.31 C 612.04 553.43 616.25 553.00 621.27 552.27 C 622.42 547.39 623.59 542.56 630.25 543.25 C 630.24 537.46 633.47 534.22 639.28 534.28 C 639.03 529.06 640.79 525.57 646.70 526.63 C 650.05 525.27 647.63 519.75 650.37 518.51 C 660.52 521.03 654.36 505.58 665.29 508.28 C 662.25 497.27 678.87 504.15 675.62 492.66 C 682.14 494.49 683.89 488.93 683.98 484.19 C 677.87 480.09 665.66 484.18 662.00 477.12 C 673.40 474.32 685.28 475.44 696.91 474.88 C 701.31 474.30 699.99 468.42 702.84 465.85 C 713.18 470.41 707.76 454.16 717.76 456.59 C 720.19 444.00 718.86 431.04 720.28 418.33 C 720.72 416.46 723.35 416.63 723.40 418.62 C 726.66 425.31 724.11 433.72 728.21 439.97 C 733.58 441.44 737.88 437.00 736.66 431.62 C 740.37 430.52 745.72 431.65 744.56 425.43 C 744.55 421.03 751.15 423.52 752.48 420.56 C 750.43 410.25 765.87 416.48 762.67 405.63 C 774.15 408.87 767.27 392.26 778.28 395.29 C 777.53 388.31 782.75 387.18 787.64 385.68 C 784.43 374.77 801.42 382.39 797.67 370.63 M 826.18 375.02 C 821.58 386.30 810.28 391.48 803.11 401.12 C 668.14 535.51 533.72 670.36 399.01 805.01 C 390.55 811.87 385.96 822.80 374.90 826.14 C 379.30 835.30 387.18 843.36 395.20 848.88 C 417.16 870.71 455.68 874.16 481.96 859.80 C 500.82 850.99 514.15 834.03 528.94 819.94 C 623.39 725.73 717.50 631.19 812.06 537.06 C 828.55 519.30 848.20 503.65 859.85 481.98 C 868.86 465.60 871.20 443.82 865.82 425.14 C 860.82 414.64 858.96 402.44 848.86 395.20 C 849.18 391.05 843.66 390.26 841.81 387.19 C 837.82 381.83 832.19 377.69 826.18 375.02 Z" />
</g>
<g id="#30303080">
<path fill="#303030" opacity="0.50" d=" M 43.97 371.01 C 43.64 369.28 44.11 368.15 45.36 367.59 C 46.95 410.61 45.50 453.89 46.00 497.00 C 45.52 568.77 46.95 640.63 45.29 712.35 L 44.28 712.00 C 43.61 598.35 44.22 484.67 43.97 371.01 Z" />
<path fill="#303030" opacity="0.50" d=" M 1034.00 543.00 C 1034.50 484.56 1032.99 426.03 1034.75 367.64 C 1037.67 396.39 1035.16 428.11 1036.00 458.00 C 1036.03 541.33 1035.94 624.66 1036.05 708.00 C 1035.66 709.39 1036.75 712.22 1034.64 712.41 C 1033.09 656.05 1034.47 599.45 1034.00 543.00 Z" />
</g>
<g id="#a0a0a0ff">
<path fill="#a0a0a0" opacity="1.00" d=" M 363.25 419.22 C 378.95 401.79 396.81 384.28 414.07 368.19 L 415.00 368.09 C 411.68 371.77 408.21 375.32 404.89 379.00 C 395.89 388.04 387.59 397.52 377.94 405.79 C 373.11 410.67 368.29 415.57 363.26 420.24 L 363.25 419.22 Z" />
</g>
<g id="#9b9b9bff">
<path fill="#9b9b9b" opacity="1.00" d=" M 826.18 375.02 C 832.19 377.69 837.82 381.83 841.81 387.19 C 843.66 390.26 849.18 391.05 848.86 395.20 C 844.60 392.96 841.36 388.63 837.00 386.94 C 831.25 387.13 835.54 393.21 837.53 395.52 C 840.81 400.68 834.92 400.45 832.57 402.60 C 690.08 545.10 547.58 687.60 405.08 830.09 C 402.25 832.61 400.95 838.81 396.15 837.96 C 393.30 836.45 390.46 832.36 387.12 835.23 C 386.58 840.80 392.36 844.50 395.20 848.88 C 387.18 843.36 379.30 835.30 374.90 826.14 C 385.96 822.80 390.55 811.87 399.01 805.01 C 533.72 670.36 668.14 535.51 803.11 401.12 C 810.28 391.48 821.58 386.30 826.18 375.02 Z" />
</g>
<g id="#b0b0b0ff">
<path fill="#b0b0b0" opacity="1.00" d=" M 860.25 387.11 C 869.89 384.69 862.38 399.52 868.86 400.27 C 880.85 403.15 870.36 420.02 879.55 425.46 C 885.42 439.55 884.40 456.63 877.11 470.05 C 874.95 476.00 876.68 482.87 873.57 488.58 C 870.07 490.88 866.36 493.07 867.26 498.16 C 866.25 495.74 866.04 490.71 862.25 492.14 C 858.20 494.71 860.91 501.50 856.03 503.10 C 738.22 620.22 620.83 738.85 502.94 855.97 C 501.00 860.46 494.77 858.46 492.13 862.25 C 490.72 866.05 495.78 866.24 498.20 867.33 C 493.64 867.07 491.29 869.81 489.25 873.29 C 481.68 877.89 471.04 873.65 464.10 880.03 C 450.46 884.67 433.77 885.37 421.71 876.37 C 414.95 872.72 403.47 878.67 400.77 869.31 C 399.97 861.73 384.77 870.08 387.12 860.25 C 393.25 855.09 398.53 864.15 403.37 866.55 C 415.90 867.57 425.97 877.84 439.00 875.09 C 460.64 877.58 480.27 867.57 498.29 857.21 C 502.56 852.50 508.91 849.35 511.99 843.58 C 553.95 802.43 595.13 760.42 636.95 719.10 C 657.71 699.35 677.81 678.53 698.39 658.39 C 749.86 605.94 802.95 554.81 853.81 501.83 C 858.15 499.95 857.63 494.60 860.41 491.38 C 867.26 483.43 868.89 472.80 873.53 463.64 C 875.55 450.46 876.11 436.67 873.37 423.57 C 869.26 417.27 867.85 409.72 866.47 402.46 C 863.45 397.80 855.22 393.29 860.25 387.11 Z" />
</g>
<g id="#969696ff">
<path fill="#969696" opacity="1.00" d=" M 848.95 405.87 C 858.55 401.21 858.27 415.54 860.13 420.89 C 868.20 431.32 867.80 445.62 866.16 458.03 C 865.82 466.48 859.88 473.45 859.85 481.98 C 848.20 503.65 828.55 519.30 812.06 537.06 C 717.50 631.19 623.39 725.73 528.94 819.94 C 514.15 834.03 500.82 850.99 481.96 859.80 C 479.37 860.03 476.78 860.41 474.35 861.36 C 459.34 868.29 441.11 869.56 425.72 863.24 C 420.52 858.83 413.59 858.52 407.35 856.65 C 403.68 855.13 405.34 850.95 406.11 848.10 C 432.27 824.73 456.44 798.37 481.75 773.75 C 603.98 651.08 727.61 528.79 848.95 405.87 M 859.58 438.71 C 850.21 447.63 842.48 458.12 832.75 466.75 C 705.75 593.75 578.74 720.75 451.75 847.76 C 444.40 851.09 441.37 860.21 433.07 861.17 C 432.36 863.32 434.85 863.95 436.34 864.64 C 451.53 869.57 467.45 860.35 480.93 857.93 C 502.74 845.87 517.97 825.76 536.01 809.01 C 628.65 716.26 721.24 623.66 814.01 531.01 C 829.46 514.62 847.14 501.12 857.92 480.95 C 860.91 466.93 870.50 449.62 863.79 434.18 C 861.53 430.62 858.16 436.23 859.58 438.71 Z" />
</g>
<g id="#c3c3c3ff">
<path fill="#c3c3c3" opacity="1.00" d=" M 363.26 420.24 C 368.29 415.57 373.11 410.67 377.94 405.79 C 377.19 411.88 369.64 413.50 368.43 419.54 C 352.08 436.79 335.53 452.76 318.58 469.47 C 316.96 474.42 310.45 474.94 308.82 479.86 C 307.49 483.64 302.26 483.01 300.57 486.59 C 298.94 489.44 295.93 490.53 292.82 490.86 L 292.84 489.88 C 317.33 467.86 340.10 443.69 363.26 420.24 Z" />
<path fill="#c3c3c3" opacity="1.00" d=" M 195.82 657.96 C 194.95 635.59 191.17 610.83 203.73 590.82 C 204.60 599.77 200.50 607.72 196.18 615.13 C 195.49 626.29 196.16 637.55 196.18 648.75 C 196.07 651.83 195.89 654.83 195.82 657.96 Z" />
</g>
<g id="#8b8b8bff">
<path fill="#8b8b8b" opacity="1.00" d=" M 347.90 432.91 C 353.07 428.50 356.95 422.04 363.25 419.22 L 363.26 420.24 C 340.10 443.69 317.33 467.86 292.84 489.88 L 291.97 490.12 C 309.01 470.28 329.83 452.37 347.90 432.91 Z" />
</g>
<g id="#949494ff">
<path fill="#949494" opacity="1.00" d=" M 859.58 438.71 C 858.16 436.23 861.53 430.62 863.79 434.18 C 870.50 449.62 860.91 466.93 857.92 480.95 C 857.78 475.39 860.42 469.07 856.69 464.16 C 851.56 463.10 851.22 470.64 849.58 473.69 C 848.97 481.35 839.01 481.83 838.66 489.63 C 832.98 490.42 831.27 494.84 829.24 499.17 C 821.41 498.81 823.25 508.89 816.15 509.26 C 812.35 510.45 814.35 517.35 809.36 517.38 C 803.55 517.24 806.13 525.28 800.88 525.85 C 794.95 526.24 797.07 534.97 790.99 534.99 C 786.14 535.44 788.67 543.32 783.36 543.38 C 777.55 543.23 780.14 551.29 774.89 551.85 C 770.49 552.25 770.35 556.67 768.86 559.86 C 765.66 561.39 761.06 561.43 761.00 566.01 C 760.69 571.20 752.71 568.31 752.62 573.64 C 752.36 576.89 749.79 578.32 746.88 578.89 C 742.48 579.56 744.85 586.65 739.88 586.85 C 733.95 587.24 736.07 595.97 729.99 595.99 C 725.14 596.44 727.67 604.32 722.36 604.38 C 716.55 604.23 719.14 612.29 713.89 612.85 C 709.49 613.25 709.35 617.67 707.86 620.86 C 704.66 622.39 700.06 622.43 700.00 627.01 C 699.70 632.24 691.46 629.26 691.74 634.84 C 691.83 640.51 683.41 637.76 683.26 643.16 C 683.16 647.70 678.59 647.91 675.37 649.35 C 673.73 652.03 673.77 656.45 669.84 656.73 C 664.03 656.82 666.77 665.75 660.64 665.62 C 655.44 665.80 658.04 673.51 652.88 673.85 C 647.75 674.03 648.88 680.51 645.30 682.22 C 640.06 682.34 639.42 686.98 637.73 690.75 C 633.98 691.69 630.30 692.74 630.28 697.34 C 629.25 701.41 622.20 699.14 622.26 704.16 C 622.47 710.35 613.84 707.67 613.15 713.11 C 612.62 715.88 610.82 717.67 607.99 717.99 C 603.14 718.44 605.67 726.32 600.36 726.38 C 594.56 726.24 597.13 734.28 591.88 734.85 C 585.95 735.24 588.07 743.97 581.99 743.99 C 577.14 744.44 579.67 752.31 574.36 752.38 C 568.55 752.23 571.14 760.29 565.89 760.85 C 561.49 761.24 561.36 765.67 559.86 768.86 C 556.66 770.39 552.06 770.43 552.00 775.01 C 551.69 780.19 543.71 777.31 543.62 782.64 C 543.36 785.89 540.79 787.32 537.88 787.89 C 533.48 788.56 535.85 795.65 530.88 795.85 C 524.95 796.24 527.07 804.97 520.99 804.99 C 516.14 805.44 518.68 813.31 513.36 813.38 C 507.56 813.24 510.13 821.28 504.88 821.85 C 499.79 822.07 500.84 828.41 497.30 830.25 C 492.40 830.81 491.27 834.85 489.73 838.75 C 487.09 840.06 483.29 839.75 482.10 843.08 C 479.52 851.39 467.52 848.31 464.05 855.05 C 465.88 860.91 476.06 857.80 480.93 857.93 C 467.45 860.35 451.53 869.57 436.34 864.64 C 434.85 863.95 432.36 863.32 433.07 861.17 C 441.37 860.21 444.40 851.09 451.75 847.76 C 578.74 720.75 705.75 593.75 832.75 466.75 C 842.48 458.12 850.21 447.63 859.58 438.71 Z" />
</g>
<g id="#929292ff">
<path fill="#929292" opacity="1.00" d=" M 867.74 501.76 C 876.13 488.06 882.18 472.76 884.87 456.81 C 886.76 468.36 882.76 480.09 877.27 490.13 C 866.78 514.07 845.05 529.97 827.54 548.51 C 756.87 619.54 685.81 690.14 615.20 761.22 C 579.35 796.00 545.34 832.69 508.47 866.42 C 493.64 876.26 476.43 887.22 457.73 884.74 C 468.87 883.52 478.59 877.42 489.59 875.50 C 504.62 866.54 518.36 855.16 530.04 842.06 C 624.95 748.38 718.78 652.95 813.75 558.77 C 831.72 539.73 851.88 522.92 867.74 501.76 Z" />
</g>
<g id="#909090ff">
<path fill="#909090" opacity="1.00" d=" M 849.58 473.69 C 851.22 470.64 851.56 463.10 856.69 464.16 C 860.42 469.07 857.78 475.39 857.92 480.95 C 847.14 501.12 829.46 514.62 814.01 531.01 C 721.24 623.66 628.65 716.26 536.01 809.01 C 517.97 825.76 502.74 845.87 480.93 857.93 C 476.06 857.80 465.88 860.91 464.05 855.05 C 467.52 848.31 479.52 851.39 482.10 843.08 C 483.29 839.75 487.09 840.06 489.73 838.75 C 491.27 834.85 492.40 830.81 497.30 830.25 C 500.84 828.41 499.79 822.07 504.88 821.85 C 510.13 821.28 507.56 813.24 513.36 813.38 C 518.68 813.31 516.14 805.44 520.99 804.99 C 527.07 804.97 524.95 796.24 530.88 795.85 C 535.85 795.65 533.48 788.56 537.88 787.89 C 540.79 787.32 543.36 785.89 543.62 782.64 C 543.71 777.31 551.69 780.19 552.00 775.01 C 552.06 770.43 556.66 770.39 559.86 768.86 C 561.36 765.67 561.49 761.24 565.89 760.85 C 571.14 760.29 568.55 752.23 574.36 752.38 C 579.67 752.31 577.14 744.44 581.99 743.99 C 588.07 743.97 585.95 735.24 591.88 734.85 C 597.13 734.28 594.56 726.24 600.36 726.38 C 605.67 726.32 603.14 718.44 607.99 717.99 C 610.82 717.67 612.62 715.88 613.15 713.11 C 613.84 707.67 622.47 710.35 622.26 704.16 C 622.20 699.14 629.25 701.41 630.28 697.34 C 630.30 692.74 633.98 691.69 637.73 690.75 C 639.42 686.98 640.06 682.34 645.30 682.22 C 648.88 680.51 647.75 674.03 652.88 673.85 C 658.04 673.51 655.44 665.80 660.64 665.62 C 666.77 665.75 664.03 656.82 669.84 656.73 C 673.77 656.45 673.73 652.03 675.37 649.35 C 678.59 647.91 683.16 647.70 683.26 643.16 C 683.41 637.76 691.83 640.51 691.74 634.84 C 691.46 629.26 699.70 632.24 700.00 627.01 C 700.06 622.43 704.66 622.39 707.86 620.86 C 709.35 617.67 709.49 613.25 713.89 612.85 C 719.14 612.29 716.55 604.23 722.36 604.38 C 727.67 604.32 725.14 596.44 729.99 595.99 C 736.07 595.97 733.95 587.24 739.88 586.85 C 744.85 586.65 742.48 579.56 746.88 578.89 C 749.79 578.32 752.36 576.89 752.62 573.64 C 752.71 568.31 760.69 571.20 761.00 566.01 C 761.06 561.43 765.66 561.39 768.86 559.86 C 770.35 556.67 770.49 552.25 774.89 551.85 C 780.14 551.29 777.55 543.23 783.36 543.38 C 788.67 543.32 786.14 535.44 790.99 534.99 C 797.07 534.97 794.95 526.24 800.88 525.85 C 806.13 525.28 803.55 517.24 809.36 517.38 C 814.35 517.35 812.35 510.45 816.15 509.26 C 823.25 508.89 821.41 498.81 829.24 499.17 C 831.27 494.84 832.98 490.42 838.66 489.63 C 839.01 481.83 848.97 481.35 849.58 473.69 Z" />
</g>
<g id="#a3a3a3ff">
<path fill="#a3a3a3" opacity="1.00" d=" M 246.28 535.19 C 261.67 520.40 276.18 504.30 291.97 490.12 L 292.84 489.88 L 292.82 490.86 C 280.53 503.17 268.60 515.85 256.03 527.88 C 248.65 533.31 244.62 541.80 237.39 547.39 C 231.39 551.62 228.19 559.63 220.93 561.99 C 228.92 552.63 238.78 544.99 246.28 535.19 Z" />
</g>
<g id="#c1c1c1ff">
<path fill="#c1c1c1" opacity="1.00" d=" M 257.26 555.27 C 263.42 555.48 267.13 561.88 271.72 565.29 C 310.97 603.72 351.81 640.57 389.94 680.06 C 402.91 691.35 413.27 708.22 431.30 711.74 C 441.39 713.72 449.79 707.75 457.93 702.86 C 454.70 707.90 448.73 710.33 443.41 712.47 C 429.18 716.97 415.25 708.23 405.73 698.27 C 359.20 650.86 310.14 604.98 261.94 559.99 C 256.88 560.43 252.72 564.97 249.83 568.86 C 241.44 576.47 232.17 584.82 228.57 595.50 C 219.26 597.41 222.53 609.54 220.01 616.16 C 214.35 621.02 213.44 628.35 213.37 635.42 C 211.44 649.08 218.38 661.11 221.07 673.99 C 228.29 690.16 242.71 701.28 251.56 716.40 C 257.09 718.32 256.46 725.07 261.03 727.95 C 265.52 729.42 263.21 734.48 264.40 737.54 C 267.66 738.47 271.77 739.69 271.08 744.02 C 266.03 745.29 264.57 738.89 260.39 737.57 C 255.87 735.63 253.43 730.74 248.74 729.10 C 239.89 720.93 231.39 712.36 221.95 704.85 C 214.76 698.99 209.85 691.04 204.61 683.53 C 202.41 674.68 195.65 667.36 195.82 657.96 C 202.70 663.86 203.05 673.47 205.38 681.59 C 211.08 683.78 211.50 689.86 214.80 694.10 C 223.67 703.26 232.55 712.78 243.11 719.99 C 248.86 721.12 246.79 712.15 243.02 710.97 C 231.01 695.28 216.50 679.53 212.99 659.01 C 204.83 624.75 220.39 588.76 246.31 566.34 C 249.67 562.42 253.17 558.35 257.26 555.27 Z" />
</g>
<g id="#9c9c9cff">
<path fill="#9c9c9c" opacity="1.00" d=" M 197.10 598.06 C 204.16 585.45 209.45 571.58 220.93 561.99 C 216.87 572.51 206.54 579.53 203.73 590.82 C 191.17 610.83 194.95 635.59 195.82 657.96 C 195.65 667.36 202.41 674.68 204.61 683.53 C 209.85 691.04 214.76 698.99 221.95 704.85 C 225.88 712.79 235.15 716.60 240.21 723.80 C 254.34 736.95 267.75 750.93 282.85 763.05 C 295.12 776.30 309.53 787.77 321.75 801.25 C 344.42 822.54 363.97 847.10 388.35 866.55 C 391.71 868.29 396.27 867.94 398.33 871.68 C 403.93 878.44 413.73 876.19 420.82 880.27 C 425.45 883.23 430.99 883.57 436.22 884.86 C 432.57 884.96 428.89 884.90 425.25 884.87 C 399.55 878.61 377.61 863.10 360.33 843.66 C 326.81 809.80 293.44 775.72 258.42 743.52 C 252.08 738.31 247.39 730.53 239.86 727.01 C 221.39 708.52 200.20 690.25 194.54 663.57 C 192.81 641.83 190.81 619.25 197.10 598.06 Z" />
</g>
<g id="#8a8a8aff">
<path fill="#8a8a8a" opacity="1.00" d=" M 239.86 727.01 C 247.39 730.53 252.08 738.31 258.42 743.52 C 293.44 775.72 326.81 809.80 360.33 843.66 C 377.61 863.10 399.55 878.61 425.25 884.87 C 404.94 884.50 387.18 871.60 372.00 859.01 C 328.69 814.33 283.71 771.18 239.86 727.01 Z" />
</g>
<g id="#2c2c2c74">
<path fill="#2c2c2c" opacity="0.45" d=" M 1031.97 824.75 C 1031.68 822.50 1031.87 820.29 1032.55 818.12 C 1033.52 819.85 1034.26 824.07 1031.97 824.75 Z" />
</g>
<g id="#2a2a2a6e">
<path fill="#2a2a2a" opacity="0.43" d=" M 243.20 1030.95 C 244.62 1031.08 247.47 1031.36 248.90 1031.50 C 247.56 1032.76 243.47 1033.21 243.20 1030.95 Z" />
</g>
<g id="#474747bc">
<path fill="#474747" opacity="0.74" d=" M 742.68 1034.60 C 751.01 1033.10 759.57 1034.31 767.99 1033.99 L 768.01 1034.95 C 759.57 1034.78 751.06 1035.65 742.68 1034.60 Z" />
</g>
<g id="#25252564">
<path fill="#252525" opacity="0.39" d=" M 767.99 1033.99 C 773.65 1033.95 779.31 1033.94 785.00 1034.02 C 781.39 1036.41 773.27 1034.48 768.01 1034.95 L 767.99 1033.99 Z" />
</g>
</svg>
